<svg width="34" height="35" viewBox="0 0 34 35" fill="none" xmlns="http://www.w3.org/2000/svg">
<path d="M13.2216 23C13.2216 22.296 13.3229 21.656 13.5256 21.08C13.7282 20.4933 14.0216 19.9813 14.4056 19.544C14.7896 19.1067 15.1736 18.7387 15.5576 18.44C15.9416 18.1413 16.4002 17.8373 16.9336 17.528C17.4242 17.2293 17.8082 16.9787 18.0856 16.776C18.3629 16.5627 18.6189 16.28 18.8536 15.928C19.0989 15.576 19.2216 15.2027 19.2216 14.808C19.2216 14.264 19.0189 13.8107 18.6136 13.448C18.2189 13.0853 17.6909 12.904 17.0296 12.904C15.7922 12.904 14.9976 13.4533 14.6456 14.552L13.3976 13.992C13.6216 13.288 14.0642 12.7173 14.7256 12.28C15.3869 11.832 16.1709 11.608 17.0776 11.608C18.1869 11.608 19.0616 11.9067 19.7016 12.504C20.3416 13.0907 20.6616 13.8693 20.6616 14.84C20.6616 15.224 20.6029 15.5813 20.4856 15.912C20.3682 16.2427 20.2242 16.5253 20.0536 16.76C19.8936 16.9947 19.6589 17.24 19.3496 17.496C19.0402 17.752 18.7629 17.96 18.5176 18.12C18.2829 18.2693 17.9629 18.4667 17.5576 18.712C16.7682 19.1707 16.1442 19.624 15.6856 20.072C15.2376 20.52 14.9549 21.0427 14.8376 21.64H20.7576V23H13.2216Z" fill="black"/>
<path d="M0.599558 34.3002C0.458486 34.3002 0.270389 34.2532 0.176341 34.1121C-0.0587802 33.877 -0.0587802 33.5008 0.176341 33.2657L9.11094 24.2841C9.34606 24.0489 9.72225 24.0489 9.95737 24.2841C10.1925 24.5192 10.1925 24.8954 9.95737 25.1305L1.02278 34.1121C0.928728 34.2062 0.740631 34.3002 0.599558 34.3002ZM33.3284 34.3002C33.1873 34.3002 32.9992 34.2532 32.9052 34.1121L24.2527 25.4126C24.0176 25.1775 24.0176 24.8013 24.2527 24.5662C24.4878 24.3311 24.864 24.3311 25.0992 24.5662L33.7516 33.2187C33.9867 33.4538 33.9867 33.83 33.7516 34.0651C33.6576 34.2062 33.5165 34.3002 33.3284 34.3002ZM16.8699 34.1591C16.5408 34.1591 16.2586 33.877 16.2586 33.5478V27.9519C16.2586 27.6228 16.5408 27.3406 16.8699 27.3406C17.1991 27.3406 17.4812 27.6228 17.4812 27.9519V33.5478C17.4812 33.877 17.2461 34.1591 16.8699 34.1591ZM33.1873 17.8417H27.5914C27.2623 17.8417 26.9801 17.5596 26.9801 17.2304C26.9801 16.9013 27.2623 16.6191 27.5914 16.6191H33.1873C33.5165 16.6191 33.7986 16.9013 33.7986 17.2304C33.7986 17.5596 33.5165 17.8417 33.1873 17.8417ZM6.7127 17.8417H1.11682C0.787655 17.8417 0.50551 17.5596 0.50551 17.2304C0.50551 16.9013 0.787655 16.6191 1.11682 16.6191H6.7127C7.04187 16.6191 7.32402 16.9013 7.32402 17.2304C7.32402 17.5596 7.04187 17.8417 6.7127 17.8417ZM9.8163 10.7411C9.67523 10.7411 9.48713 10.6941 9.39308 10.553L0.176341 1.33625C-0.0587802 1.10113 -0.0587802 0.724938 0.176341 0.489817C0.411462 0.254696 0.787655 0.254696 1.02278 0.489817L10.2395 9.70656C10.4746 9.94168 10.4746 10.3179 10.2395 10.553C10.0984 10.647 9.95737 10.7411 9.8163 10.7411ZM24.3938 10.506C24.2527 10.506 24.0646 10.4589 23.9706 10.3179C23.7355 10.0828 23.7355 9.70656 23.9706 9.47144L32.9522 0.489817C33.1873 0.254696 33.5635 0.254696 33.7986 0.489817C34.0338 0.724938 34.0338 1.10113 33.7986 1.33625L24.817 10.3179C24.6759 10.4119 24.5349 10.506 24.3938 10.506Z" fill="#231F20"/>
</svg>
