<svg width="34" height="35" viewBox="0 0 34 35" fill="none" xmlns="http://www.w3.org/2000/svg">
<path d="M16.8435 23.192C14.9555 23.192 13.6808 22.3227 13.0195 20.584L14.3155 20.056C14.8168 21.2613 15.6595 21.864 16.8435 21.864C17.5475 21.864 18.1235 21.6933 18.5715 21.352C19.0195 21.0107 19.2435 20.5147 19.2435 19.864C19.2435 19.2453 19.0462 18.7547 18.6515 18.392C18.2568 18.0187 17.6808 17.832 16.9235 17.832H16.1235V16.52H16.8435C17.4302 16.52 17.9048 16.36 18.2675 16.04C18.6302 15.7093 18.8115 15.2773 18.8115 14.744C18.8115 14.1893 18.6302 13.7467 18.2675 13.416C17.9155 13.0853 17.4568 12.92 16.8915 12.92C15.8782 12.92 15.1368 13.4213 14.6675 14.424L13.3715 13.928C13.6382 13.2453 14.0702 12.6907 14.6675 12.264C15.2755 11.8267 16.0168 11.608 16.8915 11.608C17.8622 11.608 18.6675 11.8907 19.3075 12.456C19.9475 13.0213 20.2675 13.7307 20.2675 14.584C20.2675 15.096 20.1395 15.5707 19.8835 16.008C19.6382 16.4453 19.2862 16.7813 18.8275 17.016C19.4142 17.2507 19.8728 17.608 20.2035 18.088C20.5342 18.568 20.6995 19.144 20.6995 19.816C20.6995 20.8293 20.3315 21.6453 19.5955 22.264C18.8595 22.8827 17.9422 23.192 16.8435 23.192Z" fill="black"/>
<path d="M0.599558 34.3002C0.458486 34.3002 0.270389 34.2532 0.176341 34.1121C-0.0587802 33.877 -0.0587802 33.5008 0.176341 33.2657L9.11094 24.2841C9.34606 24.0489 9.72225 24.0489 9.95737 24.2841C10.1925 24.5192 10.1925 24.8954 9.95737 25.1305L1.02278 34.1121C0.928728 34.2062 0.740631 34.3002 0.599558 34.3002ZM33.3284 34.3002C33.1873 34.3002 32.9992 34.2532 32.9052 34.1121L24.2527 25.4126C24.0176 25.1775 24.0176 24.8013 24.2527 24.5662C24.4878 24.3311 24.864 24.3311 25.0992 24.5662L33.7516 33.2187C33.9867 33.4538 33.9867 33.83 33.7516 34.0651C33.6576 34.2062 33.5165 34.3002 33.3284 34.3002ZM16.8699 34.1591C16.5408 34.1591 16.2586 33.877 16.2586 33.5478V27.9519C16.2586 27.6228 16.5408 27.3406 16.8699 27.3406C17.1991 27.3406 17.4812 27.6228 17.4812 27.9519V33.5478C17.4812 33.877 17.2461 34.1591 16.8699 34.1591ZM33.1873 17.8417H27.5914C27.2623 17.8417 26.9801 17.5596 26.9801 17.2304C26.9801 16.9013 27.2623 16.6191 27.5914 16.6191H33.1873C33.5165 16.6191 33.7986 16.9013 33.7986 17.2304C33.7986 17.5596 33.5165 17.8417 33.1873 17.8417ZM6.7127 17.8417H1.11682C0.787655 17.8417 0.50551 17.5596 0.50551 17.2304C0.50551 16.9013 0.787655 16.6191 1.11682 16.6191H6.7127C7.04187 16.6191 7.32402 16.9013 7.32402 17.2304C7.32402 17.5596 7.04187 17.8417 6.7127 17.8417ZM9.8163 10.7411C9.67523 10.7411 9.48713 10.6941 9.39308 10.553L0.176341 1.33625C-0.0587802 1.10113 -0.0587802 0.724938 0.176341 0.489817C0.411462 0.254696 0.787655 0.254696 1.02278 0.489817L10.2395 9.70656C10.4746 9.94168 10.4746 10.3179 10.2395 10.553C10.0984 10.647 9.95737 10.7411 9.8163 10.7411ZM24.3938 10.506C24.2527 10.506 24.0646 10.4589 23.9706 10.3179C23.7355 10.0828 23.7355 9.70656 23.9706 9.47144L32.9522 0.489817C33.1873 0.254696 33.5635 0.254696 33.7986 0.489817C34.0338 0.724938 34.0338 1.10113 33.7986 1.33625L24.817 10.3179C24.6759 10.4119 24.5349 10.506 24.3938 10.506Z" fill="#231F20"/>
</svg>
