<svg width="348" height="62" viewBox="0 0 348 62" fill="none" xmlns="http://www.w3.org/2000/svg">
<path d="M16 0H332L348 31L332 62H16L0 31L16 0Z" fill="black"/>
<path d="M43.8916 40.3C42.6083 40.3 41.4749 40.05 40.4916 39.55C39.5249 39.0333 38.7499 38.3417 38.1666 37.475C37.5999 36.6083 37.1749 35.65 36.8916 34.6C36.6083 33.55 36.4666 32.4333 36.4666 31.25C36.4666 30.0833 36.6166 28.975 36.9166 27.925C37.2166 26.8583 37.6583 25.9 38.2416 25.05C38.8249 24.1833 39.5999 23.4917 40.5666 22.975C41.5499 22.4583 42.6583 22.2 43.8916 22.2C45.3749 22.2 46.5416 22.475 47.3916 23.025C48.2583 23.575 48.9833 24.325 49.5666 25.275L47.6166 26.4C47.1499 25.7167 46.6333 25.1917 46.0666 24.825C45.4999 24.4417 44.7749 24.25 43.8916 24.25C43.1416 24.25 42.4666 24.3917 41.8666 24.675C41.2666 24.9583 40.7749 25.3333 40.3916 25.8C40.0083 26.25 39.6833 26.7833 39.4166 27.4C39.1666 28.0167 38.9833 28.65 38.8666 29.3C38.7666 29.9333 38.7166 30.5833 38.7166 31.25C38.7166 33.2167 39.1499 34.875 40.0166 36.225C40.8833 37.5583 42.1749 38.225 43.8916 38.225C45.0749 38.225 46.0249 37.8583 46.7416 37.125C47.4583 36.375 47.8166 35.4 47.8166 34.2V33.5H44.6416V31.5H50.0916V33.6C50.0916 35.7167 49.5083 37.3667 48.3416 38.55C47.1916 39.7167 45.7083 40.3 43.8916 40.3ZM54.4285 40V22.5H64.8285V24.55H56.6035V29.925H62.0285V31.975H56.6035V37.925H65.3785V40H54.4285ZM75.3193 24.575V40H73.1443V24.575H68.2693V22.5H80.1943V24.575H75.3193ZM93.6773 40.3C90.7273 40.3 88.7357 38.9417 87.7023 36.225L89.7273 35.4C90.5107 37.2833 91.8273 38.225 93.6773 38.225C94.7773 38.225 95.6773 37.9583 96.3773 37.425C97.0773 36.8917 97.4273 36.1167 97.4273 35.1C97.4273 34.1333 97.119 33.3667 96.5023 32.8C95.8857 32.2167 94.9857 31.925 93.8023 31.925H92.5523V29.875H93.6773C94.594 29.875 95.3357 29.625 95.9023 29.125C96.469 28.6083 96.7523 27.9333 96.7523 27.1C96.7523 26.2333 96.469 25.5417 95.9023 25.025C95.3523 24.5083 94.6357 24.25 93.7523 24.25C92.169 24.25 91.0107 25.0333 90.2773 26.6L88.2523 25.825C88.669 24.7583 89.344 23.8917 90.2773 23.225C91.2273 22.5417 92.3857 22.2 93.7523 22.2C95.269 22.2 96.5273 22.6417 97.5273 23.525C98.5273 24.4083 99.0273 25.5167 99.0273 26.85C99.0273 27.65 98.8273 28.3917 98.4273 29.075C98.044 29.7583 97.494 30.2833 96.7773 30.65C97.694 31.0167 98.4107 31.575 98.9273 32.325C99.444 33.075 99.7023 33.975 99.7023 35.025C99.7023 36.6083 99.1273 37.8833 97.9773 38.85C96.8273 39.8167 95.394 40.3 93.6773 40.3ZM108.716 40.3C107.416 40.3 106.283 40.1083 105.316 39.725C104.35 39.3417 103.616 38.8917 103.116 38.375L104.416 36.7C105.633 37.7667 107.058 38.3 108.691 38.3C109.925 38.3 110.941 37.925 111.741 37.175C112.558 36.425 112.966 35.4917 112.966 34.375C112.966 33.275 112.633 32.3833 111.966 31.7C111.316 31.0167 110.458 30.675 109.391 30.675C107.891 30.675 106.716 31.15 105.866 32.1L103.716 31.35L104.741 22.5H114.091V24.525H106.641L105.966 29.8C106.966 29 108.191 28.6 109.641 28.6C111.308 28.6 112.658 29.1417 113.691 30.225C114.725 31.3083 115.241 32.6417 115.241 34.225C115.241 35.925 114.633 37.3667 113.416 38.55C112.216 39.7167 110.65 40.3 108.716 40.3ZM122.294 31.1C120.927 31.1 119.91 30.6583 119.244 29.775C118.594 28.8917 118.269 27.85 118.269 26.65C118.269 25.5 118.602 24.475 119.269 23.575C119.935 22.6583 120.944 22.2 122.294 22.2C123.644 22.2 124.644 22.6417 125.294 23.525C125.96 24.3917 126.294 25.4333 126.294 26.65C126.294 27.3667 126.177 28.0417 125.944 28.675C125.71 29.3083 125.277 29.875 124.644 30.375C124.01 30.8583 123.227 31.1 122.294 31.1ZM122.919 40.3H120.819L132.769 22.2H134.869L122.919 40.3ZM122.294 29.375C122.977 29.375 123.502 29.1167 123.869 28.6C124.252 28.0667 124.444 27.4167 124.444 26.65C124.444 25.8167 124.26 25.1583 123.894 24.675C123.527 24.175 122.994 23.925 122.294 23.925C121.577 23.925 121.035 24.1833 120.669 24.7C120.319 25.2 120.144 25.85 120.144 26.65C120.144 27.4667 120.319 28.125 120.669 28.625C121.035 29.125 121.577 29.375 122.294 29.375ZM133.394 40.3C132.044 40.3 131.035 39.8583 130.369 38.975C129.719 38.0917 129.394 37.05 129.394 35.85C129.394 34.7167 129.719 33.6917 130.369 32.775C131.035 31.8583 132.044 31.4 133.394 31.4C134.76 31.4 135.769 31.8417 136.419 32.725C137.085 33.5917 137.419 34.6333 137.419 35.85C137.419 36.5667 137.302 37.2417 137.069 37.875C136.835 38.5083 136.402 39.075 135.769 39.575C135.135 40.0583 134.344 40.3 133.394 40.3ZM131.794 37.825C132.16 38.325 132.694 38.575 133.394 38.575C134.094 38.575 134.627 38.3167 134.994 37.8C135.36 37.2833 135.544 36.6333 135.544 35.85C135.544 35.0167 135.36 34.3583 134.994 33.875C134.627 33.375 134.094 33.125 133.394 33.125C132.694 33.125 132.16 33.3833 131.794 33.9C131.427 34.4 131.244 35.05 131.244 35.85C131.244 36.6667 131.427 37.325 131.794 37.825ZM153.73 40.3C152.414 40.3 151.255 40.0417 150.255 39.525C149.272 38.9917 148.497 38.2833 147.93 37.4C147.38 36.5 146.972 35.5417 146.705 34.525C146.439 33.4917 146.305 32.4 146.305 31.25C146.305 30.1 146.439 29.0167 146.705 28C146.972 26.9667 147.38 26.0083 147.93 25.125C148.497 24.225 149.272 23.5167 150.255 23C151.255 22.4667 152.414 22.2 153.73 22.2C154.797 22.2 155.755 22.375 156.605 22.725C157.472 23.075 158.18 23.5417 158.73 24.125C159.297 24.7083 159.764 25.4 160.13 26.2C160.514 27 160.78 27.8167 160.93 28.65C161.097 29.4833 161.18 30.35 161.18 31.25C161.18 32.15 161.097 33.0167 160.93 33.85C160.78 34.6833 160.514 35.5 160.13 36.3C159.764 37.1 159.297 37.7917 158.73 38.375C158.18 38.9583 157.472 39.425 156.605 39.775C155.755 40.125 154.797 40.3 153.73 40.3ZM151.305 37.65C152.005 38.05 152.814 38.25 153.73 38.25C154.647 38.25 155.455 38.0417 156.155 37.625C156.855 37.1917 157.397 36.625 157.78 35.925C158.164 35.225 158.447 34.4833 158.63 33.7C158.814 32.9 158.905 32.0833 158.905 31.25C158.905 30.0167 158.747 28.9 158.43 27.9C158.13 26.8833 157.572 26.0167 156.755 25.3C155.955 24.5833 154.947 24.225 153.73 24.225C152.814 24.225 152.005 24.4417 151.305 24.875C150.622 25.2917 150.089 25.8583 149.705 26.575C149.322 27.275 149.03 28.0167 148.83 28.8C148.647 29.5833 148.555 30.4 148.555 31.25C148.555 32.15 148.647 33 148.83 33.8C149.014 34.6 149.297 35.3417 149.68 36.025C150.08 36.7083 150.622 37.25 151.305 37.65ZM165.317 40V22.5H175.842V24.55H167.492V29.925H173.017V31.975H167.492V40H165.317ZM179.355 40V22.5H189.88V24.55H181.53V29.925H187.055V31.975H181.53V40H179.355ZM202.776 40V33.125L196.826 22.5H199.276L203.851 31L208.476 22.5H210.851L204.951 33.075V40H202.776ZM219.844 40.3C218.527 40.3 217.369 40.0417 216.369 39.525C215.385 38.9917 214.61 38.2833 214.044 37.4C213.494 36.5 213.085 35.5417 212.819 34.525C212.552 33.4917 212.419 32.4 212.419 31.25C212.419 30.1 212.552 29.0167 212.819 28C213.085 26.9667 213.494 26.0083 214.044 25.125C214.61 24.225 215.385 23.5167 216.369 23C217.369 22.4667 218.527 22.2 219.844 22.2C220.91 22.2 221.869 22.375 222.719 22.725C223.585 23.075 224.294 23.5417 224.844 24.125C225.41 24.7083 225.877 25.4 226.244 26.2C226.627 27 226.894 27.8167 227.044 28.65C227.21 29.4833 227.294 30.35 227.294 31.25C227.294 32.15 227.21 33.0167 227.044 33.85C226.894 34.6833 226.627 35.5 226.244 36.3C225.877 37.1 225.41 37.7917 224.844 38.375C224.294 38.9583 223.585 39.425 222.719 39.775C221.869 40.125 220.91 40.3 219.844 40.3ZM217.419 37.65C218.119 38.05 218.927 38.25 219.844 38.25C220.76 38.25 221.569 38.0417 222.269 37.625C222.969 37.1917 223.51 36.625 223.894 35.925C224.277 35.225 224.56 34.4833 224.744 33.7C224.927 32.9 225.019 32.0833 225.019 31.25C225.019 30.0167 224.86 28.9 224.544 27.9C224.244 26.8833 223.685 26.0167 222.869 25.3C222.069 24.5833 221.06 24.225 219.844 24.225C218.927 24.225 218.119 24.4417 217.419 24.875C216.735 25.2917 216.202 25.8583 215.819 26.575C215.435 27.275 215.144 28.0167 214.944 28.8C214.76 29.5833 214.669 30.4 214.669 31.25C214.669 32.15 214.76 33 214.944 33.8C215.127 34.6 215.41 35.3417 215.794 36.025C216.194 36.7083 216.735 37.25 217.419 37.65ZM237.58 40.3C233.397 40.3 231.305 38.0083 231.305 33.425V22.5H233.48V33.425C233.48 35.2083 233.847 36.4583 234.58 37.175C235.314 37.8917 236.314 38.25 237.58 38.25C238.847 38.25 239.847 37.8917 240.58 37.175C241.33 36.4583 241.705 35.2083 241.705 33.425V22.5H243.88V33.425C243.88 38.0083 241.78 40.3 237.58 40.3ZM248.667 40V22.5H255.567C257.5 22.5 258.9 22.975 259.767 23.925C260.65 24.875 261.092 26.0583 261.092 27.475C261.092 28.625 260.75 29.6583 260.067 30.575C259.4 31.475 258.383 32.0667 257.017 32.35L260.767 40H258.317L254.717 32.5H250.842V40H248.667ZM250.842 30.475H255.617C256.75 30.475 257.575 30.1917 258.092 29.625C258.625 29.0583 258.892 28.3583 258.892 27.525C258.892 26.725 258.633 26.025 258.117 25.425C257.617 24.825 256.783 24.525 255.617 24.525H250.842V30.475ZM276.277 40.3C274.793 40.3 273.502 39.9417 272.402 39.225C271.318 38.4917 270.577 37.55 270.177 36.4L272.227 35.65C272.593 36.45 273.135 37.0833 273.852 37.55C274.568 38.0167 275.393 38.25 276.327 38.25C277.393 38.25 278.235 38 278.852 37.5C279.468 36.9833 279.777 36.25 279.777 35.3C279.777 34.3833 279.427 33.65 278.727 33.1C278.043 32.55 277.077 32.05 275.827 31.6C275.227 31.3833 274.727 31.1917 274.327 31.025C273.943 30.8583 273.493 30.625 272.977 30.325C272.477 30.0083 272.077 29.6917 271.777 29.375C271.477 29.0417 271.218 28.6333 271.002 28.15C270.802 27.65 270.702 27.1083 270.702 26.525C270.702 25.3083 271.185 24.2833 272.152 23.45C273.118 22.6167 274.427 22.2 276.077 22.2C277.427 22.2 278.552 22.4917 279.452 23.075C280.352 23.6417 280.935 24.3917 281.202 25.325L279.202 26C278.968 25.4833 278.568 25.0583 278.002 24.725C277.435 24.3917 276.743 24.225 275.927 24.225C275.01 24.225 274.285 24.4333 273.752 24.85C273.218 25.25 272.952 25.8083 272.952 26.525C272.952 26.9083 273.043 27.2583 273.227 27.575C273.427 27.8917 273.727 28.175 274.127 28.425C274.543 28.675 274.927 28.875 275.277 29.025C275.627 29.175 276.11 29.3667 276.727 29.6C277.493 29.8833 278.127 30.1583 278.627 30.425C279.127 30.675 279.668 31.0167 280.252 31.45C280.835 31.8833 281.277 32.425 281.577 33.075C281.877 33.7083 282.027 34.4333 282.027 35.25C282.027 36.8167 281.493 38.05 280.427 38.95C279.36 39.85 277.977 40.3 276.277 40.3ZM286.142 40V22.5H296.542V24.55H288.317V29.925H293.742V31.975H288.317V37.925H297.092V40H286.142ZM307.033 24.575V40H304.858V24.575H299.983V22.5H311.908V24.575H307.033Z" fill="white"/>
</svg>
