<svg width="165" height="33" viewBox="0 0 165 33" fill="none" xmlns="http://www.w3.org/2000/svg">
<path d="M164.428 21.049C164.428 14.536 159.553 9.81047 152.737 9.81047C145.921 9.81047 141.047 14.536 141.047 21.049C141.047 27.5614 145.921 32.2871 152.737 32.2871C159.553 32.2871 164.428 27.5614 164.428 21.049ZM158.083 21.049C158.083 26.0336 156.551 29.3595 152.737 29.3595C148.924 29.3595 147.392 26.0336 147.392 21.049C147.392 16.0641 148.924 12.7377 152.737 12.7377C156.551 12.7377 158.083 16.0641 158.083 21.049ZM127.217 31.8795H140.029V28.6156H138.052C136.266 28.6156 135.82 28.1001 135.82 25.9916V16.922C135.82 11.8362 133.175 9.81047 129.808 9.81047C126.491 9.81047 123.689 11.9417 121.695 15.2744V10.171H112.056V13.4348H114.032C115.819 13.4348 116.242 13.9034 116.289 16.0588V25.9916C116.242 28.1001 115.819 28.6156 114.032 28.6156H112.056V31.8795H124.869V28.7013H123.951C122.165 28.7013 121.718 28.1858 121.718 26.0773V20.255C121.718 16.6945 123.824 13.9482 126.833 13.9482C129.318 13.9482 130.391 15.2764 130.391 17.9756V26.0773C130.343 28.1858 129.921 28.7013 128.134 28.7013H127.217V31.8795ZM95.9398 31.8795H109.563V28.6156H107.672C105.886 28.6156 105.463 28.1001 105.416 25.9916V10.171H95.9398V13.4348H97.7869C99.5736 13.4348 99.9964 13.9034 100.044 16.0588V25.9916C99.9964 28.1001 99.5736 28.6156 97.7869 28.6156H95.9398V31.8795ZM105.648 3.57009C105.648 1.59878 104.045 0.000225067 102.067 0.000225067C100.089 0.000225067 98.4854 1.59878 98.4854 3.57009C98.4854 5.54189 100.089 7.14013 102.067 7.14013C104.045 7.14013 105.648 5.54189 105.648 3.57009ZM80.9352 31.8795H93.575V28.6156H91.6848C89.8987 28.6156 89.4519 28.1001 89.4519 25.9916V16.922C89.4519 11.8362 86.8079 9.81047 83.4405 9.81047C80.2095 9.81047 77.4824 11.832 75.4865 15.0219C74.954 11.2637 72.787 9.81047 69.8539 9.81047C66.5372 9.81047 64.1441 11.7208 62.0837 15.0177V10.171H52.4456V13.4348H54.4217C56.2081 13.4348 56.6312 13.9034 56.6782 16.0588V25.9916C56.6312 28.1001 56.2081 28.6156 54.4217 28.6156H52.4456V31.8795H65.0859V28.7013H64.3399C62.5538 28.7013 62.1073 28.1858 62.1073 26.0773V20.255C62.1073 16.6945 63.8698 13.9482 66.8782 13.9482C69.3634 13.9482 70.2648 15.2764 70.2648 17.9756V26.0773C70.2176 28.1858 69.7947 28.7013 68.0083 28.7013H67.2626V31.8795H78.7582V28.7013H77.9265C76.1404 28.7013 75.6937 28.1858 75.6937 26.0773V20.255C75.6937 16.6945 77.4565 13.9482 80.4645 13.9482C82.95 13.9482 84.0228 15.2764 84.0228 17.9756V26.0773C83.9758 28.1858 83.5527 28.7013 81.7669 28.7013H80.9352V31.8795ZM50.4097 21.049C50.4097 14.536 45.5345 9.81047 38.7188 9.81047C31.903 9.81047 27.0275 14.536 27.0275 21.049C27.0275 27.5614 31.903 32.2871 38.7188 32.2871C45.5345 32.2871 50.4097 27.5614 50.4097 21.049ZM44.064 21.049C44.064 26.0336 42.532 29.3595 38.7188 29.3595C34.9052 29.3595 33.3732 26.0336 33.3732 21.049C33.3732 16.0641 34.9052 12.7377 38.7188 12.7377C42.532 12.7377 44.064 16.0641 44.064 21.049ZM17.2053 31.8795H25.8134V28.6156H24.3523C22.5661 28.6156 22.1196 28.1001 22.1196 25.9916V0.673866H12.2862V4.10851H14.434C16.2204 4.10851 16.6435 4.57716 16.6905 6.73255V13.4316C15.6224 11.5222 13.2236 9.81047 10.0574 9.81047C4.38647 9.81047 0 14.6217 0 21.1346C0 27.8758 4.15753 32.2871 9.37055 32.2871C13.2236 32.2871 16.0799 30.0056 17.2053 26.9549V31.8795ZM16.7762 20.6212C16.7762 25.6054 14.9012 28.5892 11.7745 28.5892C8.41877 28.5892 6.34318 25.9481 6.34318 20.9633C6.34318 15.9785 8.39018 13.0804 11.5169 13.0804C14.8726 13.0804 16.7762 16.549 16.7762 20.6212Z" fill="url(#paint0_linear)"/>
<defs>
<linearGradient id="paint0_linear" x1="0" y1="32.2871" x2="155.86" y2="32.2871" gradientUnits="userSpaceOnUse">
<stop stop-color="#C0A5CB"/>
<stop offset="0.203125" stop-color="#81B9CB"/>
<stop offset="0.395833" stop-color="#87A5BD"/>
<stop offset="0.604167" stop-color="#88B7B2"/>
<stop offset="0.792846" stop-color="#B8A2CB"/>
<stop offset="1" stop-color="#98AFD9"/>
</linearGradient>
</defs>
</svg>
