<svg width="132" height="33" viewBox="0 0 132 33" fill="none" xmlns="http://www.w3.org/2000/svg">
<path fill-rule="evenodd" clip-rule="evenodd" d="M74.7809 10.7459C76.4462 9.83856 78.1106 9.384 80.2295 9.384C85.3765 9.384 89.3119 13.9261 89.3119 20.1317C89.3119 28.0034 84.4682 32.9992 76.4453 32.9992C73.5685 32.9992 70.6916 32.5446 67.9669 31.9388C68.119 28.7595 68.272 9.384 67.9669 5.75103C67.6671 3.93368 67.2108 3.17754 65.8497 2.87508L64.7903 2.72385V1.81561L74.933 0C74.7809 1.51315 74.7809 5.90226 74.7809 10.7459ZM74.9313 31.1827C75.3841 31.333 76.142 31.333 76.7478 31.333C79.927 31.333 82.1981 26.6415 82.199 20.5845C82.199 15.7417 80.3825 11.8063 77.0502 11.8063C76.2923 11.8063 75.6874 11.9575 74.7792 12.2608C74.6288 20.1317 74.7792 29.0637 74.9313 31.1827ZM0 0.604912H26.6423L26.7944 9.5361L25.2804 9.99066C23.7673 5.44858 21.6483 2.87595 17.5599 2.87595H12.2626C12.1105 5.75191 11.9592 10.5956 11.9592 15.7426L15.5913 15.5905C17.8624 15.5905 18.9201 13.7749 19.3755 11.2014H20.7383V21.9455H19.3755C18.921 19.3729 17.8624 17.5564 15.5913 17.5564L11.9584 17.4052C11.9584 21.3398 12.1096 24.519 12.2617 26.4876C12.5642 29.3645 13.3212 30.7264 15.2889 30.8767L17.1054 31.1809V32.3916H0V31.1809L1.51403 30.8767C3.48174 30.7273 4.23788 29.3645 4.54034 26.4876C4.84367 21.7969 4.99577 11.9566 4.54034 6.50717C4.23875 3.63122 3.48087 2.42052 1.51403 2.11807L0 1.96684V0.604912ZM46.6246 21.0399C46.6246 14.2285 42.8404 9.08153 35.2711 9.08153C27.7019 9.08153 23.464 14.531 23.464 21.0399C23.464 27.8522 27.2482 33 34.8166 33C42.3858 33 46.6246 27.5488 46.6246 21.0399ZM30.5778 21.0399C30.5778 15.1368 31.4861 10.5956 34.8166 10.5956C37.9967 10.5956 39.509 15.288 39.509 21.0399C39.509 26.943 38.599 31.4843 35.1199 31.4843C32.0918 31.4843 30.5778 26.7918 30.5778 21.0399ZM102.935 9.08153C95.2142 9.08153 91.2788 14.9855 91.2788 21.192C91.2788 28.1555 96.1225 32.9992 102.935 33C107.173 33 110.502 30.8793 112.016 28.7604L111.412 28.0043C109.897 29.0646 108.687 29.6686 106.264 29.6686C100.814 29.6686 98.0893 25.5811 98.2414 19.9804H112.32C112.32 13.7748 109.291 9.08153 102.935 9.08153ZM105.356 18.164L98.2414 18.3161C98.3918 14.8334 99.7563 10.5956 102.329 10.5956C104.902 10.5956 105.356 15.1368 105.356 18.164ZM123.373 9.08153C126.098 9.08153 128.519 9.53522 130.336 10.2931L130.491 16.1962L129.432 16.4987C128.067 12.4112 126.251 10.7459 123.528 10.7459C121.711 10.7459 120.347 12.1087 120.347 14.0764C120.347 16.045 121.859 17.1045 126.099 18.7689C130.034 20.2838 131.7 22.0994 131.7 25.2787C131.7 29.9702 127.915 32.9992 122.011 32.9992C119.134 32.9992 115.805 32.3925 113.988 31.6364L113.836 24.9762L114.897 24.672C116.561 29.2141 118.682 30.8785 121.557 30.8785C123.979 30.8785 125.342 29.2141 125.342 27.3976C125.342 25.5811 124.281 24.5208 120.498 23.1597C116.861 21.9481 114.29 20.2838 114.29 16.3475C114.29 12.4112 117.773 9.08153 123.373 9.08153ZM56.7665 14.3806C59.1879 8.93031 63.73 8.17504 66.3026 9.68732L63.8803 15.8947C60.8531 13.9269 57.5226 14.8343 56.7665 15.8947C56.6144 19.5276 56.6144 25.2795 56.9168 28.1564C57.0689 29.9711 57.5235 30.8793 59.0366 31.0314L60.8531 31.1835V32.3942H46.7758V31.1835L47.8353 31.0314C49.199 30.8793 49.803 29.9711 49.9551 28.1564C50.1063 24.978 50.2576 18.6194 49.9551 14.9864C49.803 13.0178 49.199 12.2617 47.8353 12.1096L46.7758 11.9584V11.0501L56.9168 9.08241L56.7665 14.3806Z" fill="url(#paint0_linear)"/>
<defs>
<linearGradient id="paint0_linear" x1="0" y1="0" x2="124.838" y2="0" gradientUnits="userSpaceOnUse">
<stop stop-color="#C0A5CB"/>
<stop offset="0.203125" stop-color="#81B9CB"/>
<stop offset="0.395833" stop-color="#87A5BD"/>
<stop offset="0.604167" stop-color="#88B7B2"/>
<stop offset="0.792846" stop-color="#B8A2CB"/>
<stop offset="1" stop-color="#98AFD9"/>
</linearGradient>
</defs>
</svg>
