<svg width="169" height="31" viewBox="0 0 169 31" fill="none" xmlns="http://www.w3.org/2000/svg">
<path d="M12.3563 30.6445C16.8307 30.6445 19.5506 29.0754 23.0611 25.4363C25.5396 22.868 27.2954 19.4076 27.5355 15.0211H14.8688L12.0471 17.9454V21.2976H22.0983C21.4787 22.298 19.3093 24.1528 15.4545 24.1528C10.1882 24.1528 6.09205 20.0141 6.09205 14.2358C6.09205 11.6663 6.78081 9.88323 7.77877 8.84888C8.77672 7.81453 10.1882 7.17279 12.4254 7.17279C15.007 7.17279 17.7608 8.1354 20.0672 10.1337L23.4054 6.92236L23.7838 5.85279C21.7878 4.39062 18.5175 2.96366 15.4545 2.96366C9.70681 2.96366 4.99103 7.3867 4.99103 14.1289C4.99103 20.6571 9.63768 25.2224 15.4545 25.2224C21.5817 25.2224 24.2312 21.085 25.057 17.2319H15.5575V16.0189H26.4684C25.884 21.085 22.3384 26.5058 15.4545 26.5058C8.70759 26.5058 3.57957 21.1189 3.57957 14.1276C3.57957 6.70844 9.36242 1.67888 15.4545 1.67888C18.9988 1.67888 22.1662 3.14105 24.1633 4.67497L24.5077 3.57018C22.4766 2.17844 19.3784 0.644531 15.5223 0.644531C11.4262 0.644531 8.08796 2.42888 5.29896 5.31801C1.86017 8.8841 0 12.9511 0 17.5176C0 25.2941 6.16118 30.6445 12.3563 30.6445ZM33.2492 1.25105H32.2161L29.1192 4.46105V30.0393H40.5466L43.5405 26.935V25.9358H33.2492V1.25105ZM35.5895 1.25105H34.5576V24.7228H43.5405V23.725H35.5895V1.25105ZM57.997 5.46018L52.4215 19.9071H63.2985L57.997 5.46018ZM58.4784 18.908H53.8317L56.2412 12.7384L58.4784 18.908ZM51.6988 24.9732H60.6477L62.5067 30.145H65.2253L68.3235 26.935L58.4784 0.681053H57.5156L53.4195 4.96062L43.6787 30.145H47.8767L50.9749 26.935L51.6988 24.9732ZM66.8441 25.9358H65.4666L63.7447 21.1202H51.9741L50.2182 25.9358H48.8759L57.9279 2.14323H58.0661L66.8441 25.9358ZM73.7267 2.82018H73.8298L84.6037 18.0158L95.2745 2.82018H95.3776V25.9358H94.1383V6.74497L84.6037 20.1928H84.5698L74.9673 6.70844V25.9358H73.7267V2.82018ZM72.6948 1.00192L69.5967 4.21062V30.145H72.9022L75.9992 26.935L75.964 15.8402L82.1943 24.4019H82.883L90.0082 14.2711V30.145H93.3125L96.4095 26.935V1.00192H95.4115L90.5587 4.60453L83.4335 14.5567L73.6576 1.00192H72.6948ZM120.091 17.2319C120.091 19.4793 119.506 21.2271 118.403 22.3684C117.302 23.5098 115.857 24.1528 113.689 24.1528C108.008 24.1528 104.222 19.765 104.222 13.9854C104.222 11.5241 104.877 9.66932 105.978 8.52801C107.079 7.38671 108.732 6.74497 111.004 6.74497C116.235 6.74497 120.091 10.8824 120.091 17.2319ZM101.708 14.0924C101.708 7.20801 107.01 1.67888 113.583 1.67888C120.261 1.67888 125.458 7.10105 125.458 14.0924C125.458 20.978 120.158 26.5071 113.583 26.5071C106.906 26.5071 101.708 21.085 101.708 14.0924ZM103.12 14.0924C103.12 20.4419 107.63 25.2224 113.583 25.2224C119.537 25.2224 124.047 20.4067 124.047 14.0924C124.047 7.74279 119.538 2.96366 113.583 2.96366C107.628 2.96366 103.12 7.74279 103.12 14.0924ZM126.525 14.0219C126.525 6.53105 120.812 0.644531 113.652 0.644531C109.556 0.644531 106.218 2.42888 103.43 5.31801C99.9878 8.8841 98.1289 12.9158 98.1289 17.5176C98.1301 25.2941 104.396 30.6445 110.762 30.6445C114.721 30.6445 117.991 29.0754 120.951 26.0076C125.356 21.4424 126.527 17.7667 126.527 14.0206L126.525 14.0219ZM143.563 27.1124C145.524 25.0802 147.452 22.2263 147.452 18.338V1.25105H146.42V18.2663C146.42 23.0102 143.7 26.4354 139.226 26.4354C134.752 26.4354 132.033 22.9397 132.033 18.2663V1.25105H131L127.902 4.46105V20.9793C127.902 26.1863 131.241 30.325 136.473 30.325C139.192 30.325 141.257 29.5032 143.562 27.1137L143.563 27.1124ZM140.156 23.4393C139.777 23.8306 139.226 24.0458 138.469 24.0458C137.574 24.0458 136.68 23.6884 135.922 22.9398C134.992 22.0124 134.373 20.5854 134.373 18.0876V1.25105H133.34V18.1593C133.34 22.3332 135.474 25.1506 139.226 25.1506C142.978 25.1506 145.112 22.3332 145.112 18.1945V1.25105H144.079L141.016 4.46105V19.5145C141.016 21.9406 140.673 22.9032 140.156 23.4393ZM155.128 3.46323V17.4811H157.813C162.631 17.4811 165.867 15.128 165.867 10.2406C165.867 6.03149 162.77 3.46323 158.088 3.46323H155.128ZM156.127 16.4832V7.27975H157.124C158.812 7.27975 160.05 7.92149 160.911 8.84888C161.757 9.75753 162.226 10.9741 162.218 12.2376C162.218 13.4506 161.909 14.6271 161.289 15.3054C160.566 16.0906 159.81 16.4832 157.951 16.4832H156.127ZM166.177 25.9358H164.318L155.575 18.5871H155.128V25.9358H153.821V2.24888H158.123C163.354 2.24888 167.175 5.35323 167.175 10.1689C167.175 15.6628 163.148 18.5871 157.779 18.5871H157.365L166.177 25.9358ZM156.16 24.8663L162.322 30.145H165.902L169 26.935L161.669 20.8345C163.354 19.5145 165.316 17.588 166.418 16.0541C166.934 15.3419 168.276 13.3084 168.276 10.1689C168.276 4.74671 164.215 1.25105 158.158 1.25105H152.788L149.689 4.46105V30.145H153.063L156.161 26.935L156.16 24.8663Z" fill="url(#paint0_linear)"/>
<defs>
<linearGradient id="paint0_linear" x1="0" y1="0.644531" x2="160.194" y2="0.644531" gradientUnits="userSpaceOnUse">
<stop stop-color="#C0A5CB"/>
<stop offset="0.203125" stop-color="#81B9CB"/>
<stop offset="0.395833" stop-color="#87A5BD"/>
<stop offset="0.604167" stop-color="#88B7B2"/>
<stop offset="0.792846" stop-color="#B8A2CB"/>
<stop offset="1" stop-color="#98AFD9"/>
</linearGradient>
</defs>
</svg>
