<svg width="89" height="115" viewBox="0 0 89 115" fill="none" xmlns="http://www.w3.org/2000/svg">
<path d="M44.3438 3V30.2207" stroke="white" stroke-width="2" stroke-miterlimit="20" stroke-linecap="round"/>
<path d="M44.3437 30.2212C46.1584 28.7089 47.9732 28.4065 49.4854 27.4991C57.6516 23.2648 54.6271 13.2839 50.0903 9.65444C45.2511 5.72256 44.3437 3.00049 44.3437 3.00049C44.3437 3.00049 43.1339 6.02501 38.5971 9.65444C34.0604 13.2839 31.0358 23.2648 39.202 27.4991C40.7143 28.4065 42.529 28.4065 44.3437 30.2212Z" stroke="white" stroke-width="2" stroke-miterlimit="20" stroke-linecap="round"/>
<path d="M44.3438 3V114" stroke="white" stroke-width="2" stroke-miterlimit="20" stroke-linecap="round"/>
<path d="M33.7578 50.1818C34.0602 46.8548 35.5725 45.0401 36.4799 42.9229C40.7142 32.0347 28.9185 25.0783 21.6597 25.6832C13.7959 25.9856 10.1665 24.1709 10.1665 24.1709C10.1665 24.1709 11.6788 27.8003 10.469 35.6641C9.25915 42.9229 15.3082 55.021 26.4989 51.9965C28.6161 51.3916 30.7333 50.1818 33.7578 50.1818Z" stroke="white" stroke-width="2" stroke-miterlimit="20" stroke-linecap="round"/>
<path d="M10.1665 24.1709L23.172 38.3862L44.3436 61.675" fill="black"/>
<path d="M10.1665 24.1709L23.172 38.3862L44.3436 61.675" stroke="white" stroke-width="2" stroke-miterlimit="20" stroke-linecap="round"/>
<path d="M78.52 24.1709L54.9287 50.1818" stroke="white" stroke-width="2" stroke-miterlimit="20" stroke-linecap="round"/>
<path d="M54.9291 50.1831C54.6267 46.8561 53.1144 45.0414 52.207 42.9242C47.9727 32.0359 59.7683 25.0795 67.0272 25.6844C74.891 26.2893 78.5204 24.4746 78.5204 24.4746C78.5204 24.4746 77.0081 28.104 78.2179 35.9678C79.4278 43.2267 73.3787 55.3247 62.188 52.3002C60.0708 51.3929 58.2561 50.1831 54.9291 50.1831Z" stroke="white" stroke-width="2" stroke-miterlimit="20" stroke-linecap="round"/>
<path d="M78.5204 24.1729L44.3433 61.6769" stroke="white" stroke-width="2" stroke-miterlimit="20" stroke-linecap="round"/>
<path d="M31.3379 85.8727C31.6403 81.9408 33.7575 79.5212 34.6648 77.1016C39.8065 63.4913 25.2888 55.0226 16.2153 55.6275C6.53678 56.2324 2 54.1152 2 54.1152C2 54.1152 3.81471 58.652 2.30245 68.3305C0.790191 77.4041 8.3515 92.5267 22.2643 88.5948C24.9864 87.6874 27.406 86.1752 31.3379 85.8727Z" stroke="white" stroke-width="2" stroke-miterlimit="20" stroke-linecap="round"/>
<path d="M2 53.812L18.03 71.6567L44.3433 100.39" fill="black"/>
<path d="M2 53.812L18.03 71.6567L44.3433 100.39" stroke="white" stroke-width="2" stroke-miterlimit="20" stroke-linecap="round"/>
<path d="M86.6868 53.812L57.6514 85.872" stroke="white" stroke-width="2" stroke-miterlimit="20" stroke-linecap="round"/>
<path d="M57.6512 85.8727C57.3487 81.9408 55.2315 79.5212 54.3242 77.1016C49.1825 63.4913 63.7002 55.0226 72.7738 55.6275C82.4522 56.2324 86.989 54.1152 86.989 54.1152C86.989 54.1152 85.1743 58.652 86.6866 68.3305C88.1988 77.4041 80.6375 92.5267 66.7247 88.5948C64.0026 87.6874 61.583 86.1752 57.6512 85.8727Z" stroke="white" stroke-width="2" stroke-miterlimit="20" stroke-linecap="round"/>
<path d="M86.6866 53.8125L44.3433 100.39" stroke="white" stroke-width="2" stroke-miterlimit="20" stroke-linecap="round"/>
</svg>
