<svg xmlns="http://www.w3.org/2000/svg" width="193" height="29" fill="none" viewBox="0 0 193 29">
    <g clip-path="url(#prefix__clip0)">
        <path fill="#000" d="M59.732 15.224c.404-.255.904-.423 1.337-.623l3.024-1.411c1.332-.621 2.651-1.295 4.01-1.856.47-.196.354-.976.354-.976-.322-1.628-1.243-2.925-2.765-3.888C64.3 5.569 62.734 5.12 61 5.12c-2.485 0-4.477.719-5.977 2.154-1.522 1.458-2.282 3.406-2.282 5.849 0 2.83.856 4.982 2.572 6.46 1.606 1.413 3.846 2.121 6.717 2.121 1.458 0 2.807-.344 4.05-1.027 1.457-.814 2.185-1.896 2.185-3.247 0-.708-.203-1.275-.611-1.703-.409-.428-.963-.644-1.671-.644-.223 0-.433-.024-.656.015-.149.027-.317.094-.35.24-.024.112.045.226.132.302.428.376.552.995.552 1.564 0 .921-.3 1.661-.9 2.218-.6.557-1.382.837-2.347.837-1.436 0-2.421-.58-2.958-1.735-.448-.978-.837-2.597.277-3.3zm-.78-1.561c.055-3.282.357-4.871.5-5.255.612-1.012 1.931-1.356 2.96-.762.327.188.597.452.785.77.399.668.414 1.497.045 2.172-.26.32-1.48 1.38-4.29 3.075zm-13.97-8.225c-1.066 0-2.133.012-3.2.002l-2.596.015c-1.31.01-2.64-.054-3.948.025-.054.002-.111.007-.156.042-.108.084.047.349.084.445l.144.37c.235.643.354 1.284.354 1.927 0 3.1.188 6.19.114 9.29-.032 1.28-.114 2.537-.114 3.819v4.7c0 .064-.012.17-.032.322 0 0-.067.457-.104.727-.022.156-.042.312-.072.466-.032.16-.07.319-.116.475-.03.096-.154.29-.067.374.03.03.074.047.114.056.336.092.727-.215 1.022-.358.386-.189.772-.382 1.156-.575.782-.393 1.562-.794 2.344-1.185.468-.235 1.032-.43 1.482-.777.36-.278-.084-.54-.242-.743-.045-.057-.074-.126-.097-.195-.057-.171-.101-.352-.123-.53-.02-.18-.03-.314-.03-.475v-.483c0-.52-.065-1.334.393-1.693.265-.208.61-.297.948-.312 1.06-.04 2.075.409 3.154.391.331-.005.737.018 1.052-.106.245-.097.492-.22.737-.325 1.136-.485 1.98-1.41 2.554-2.485.815-1.522 1.22-3.428 1.22-5.72 0-1.777-.546-3.428-1.638-4.95-1.175-1.688-2.623-2.534-4.336-2.534zm.31 8.848c-.034 1.245-.101 2.604-.604 3.765-.27.624-.74 1.205-1.475 1.205-1.5 0-2.25-1.393-2.25-4.178v-4.017c.023-1.03.032-1.873.032-2.54 0-.536-.04-1.1.476-1.437.188-.124.416-.169.653-.156.508.022 1.06.292 1.381.584.537.485.842 1.188 1.109 1.844.654 1.606.728 3.223.678 4.93zM32.69 20.254c-.111-.399-.156-.815-.156-1.23V6.826c0-.554.096-1.16.035-1.708-.065-.574-.61-.277-.938-.168l-2.013.68c-.693.236-1.388.469-2.081.704-.258.086-.726.116-.943.376-.176.213.084.332.158.468.228.42.262.963.337 1.472.081.575.037.441.072 1.047.084 1.495-.01 2.891-.01 4.376v2.76c0 .624-.258 1.225-.775 1.805-.495.579-1.052.87-1.676.87-.623 0-1.096-.257-1.418-.774-.302-.473-.45-1.02-.45-1.643V6.217c.01-.366.032-.732.03-1.099-.006-.601-.602-.28-.941-.16-.688.242-1.377.485-2.065.725-.683.24-1.368.48-2.052.723-.2.069-.457.081-.646.242-.287.245.006.51.112.639.195.237.235.589.292.928.23 1.359.047 1.997.047 3.44v5.08c0 2.148.936 3.685 2.804 4.608.56.28 1.139.418 1.74.418.988 0 1.869-.15 2.644-.45.302-.129.638-.312 1.015-.547.225-.141.608-.557.86-.6.397-.066.417.436.417.699 0 .17-.124.63.089.722.138.06.341-.014.49-.014h.416c1.601 0 3.19-.015 4.79.091.096.008.195.012.286-.02.092-.032.171-.116.166-.212-.003-.075-.054-.14-.102-.198-.272-.325-.42-.565-.534-.978zm-20.224-8.829c-.372-.218-1.003-.458-1.899-.72-.893-.263-2.04-.567-3.435-.916-1.899-.458-2.847-1.092-2.847-1.898 0-.545.25-.97.753-1.278.413-.262.916-.393 1.505-.393.695 0 1.943.08 2.267.83.198.457-.064.91-.05 1.373.01.339.228.408.5.547.562.287 1.174.359 1.8.359.982 0 1.831-.382 2.552-1.146.373-.396.678-.84.866-1.354.195-.54.18-1.077.17-1.644-.002-.153-.029-.341-.17-.403-.082-.037-.18-.015-.262.02-.312.126-.533.363-.874.428-.27.05-.567.074-.842.074-.589 0-1.472-.099-2.65-.294-1.179-.196-2.062-.295-2.651-.295-1.768 0-3.295.413-4.582 1.243C1.153 6.896.423 8.215.423 9.915c0 1.51.688 2.899 1.891 3.81 1.248.95 2.758 1.126 4.22 1.522.812.217 1.622.44 2.43.66 1.986.525 2.979 1.387 2.979 2.584 0 .545-.196.993-.59 1.342-.606.537-1.448.604-2.205.389-.968-.275-1.804-1.003-2.572-1.632-1.44-1.178-2.683-1.767-3.73-1.767-.37 0-.725.072-1.064.213-.339.141-.638.34-.898.59-.263.25-.476.539-.639.865-.163.327-.245.676-.245 1.047 0 .345.022.696.126 1.025.052.166.129.33.248.458.091.102.3.272.448.215.148-.056.26-.316.371-.428.178-.178.371-.3.621-.349.322-.064.654-.015.978.032.52.077 1.027.166 1.54.275.465.1 1.069.161 1.494.376 1.46.414 2.607.622 3.436.622 1.636 0 3.054-.513 4.252-1.537 1.2-1.003 1.8-2.335 1.8-3.993-.003-2.18-.95-3.784-2.85-4.809zM79.419 5.18c-1.22 0-2.42.547-3.599 1.639.05-.047 0-.416 0-.483 0-.213.075-.584-.007-.78-.07-.168-.495-.086-.641-.086h-3.884c-.267 0-.858-.144-1.071.044-.305.27.163.914.282 1.179.18.408.272.836.272 1.284 0 1.852.057 3.703.064 5.554.008 1.659-.064 3.307-.064 4.966v.537c0 .475-.05.962-.22 1.408-.077.205-.352.51-.206.738.159.244.587.168.825.168h4.24c.205 0 .608-.003.745-.196.203-.287-.208-.871-.295-1.15-.136-.439-.2-.897-.2-1.354 0-1.424-.062-2.845-.05-4.268.015-1.557.082-3.11.082-4.665 0-.557.156-1.032.465-1.43.31-.397.733-.595 1.27-.595.386 0 .695.258.933.772.193.386.29.805.29 1.253 0 .423-.05.846-.152 1.257-.052.213-.118.42-.195.626-.047.127-.223.325-.156.468.072.151.341.121.48.121h3.191c.363 0 .86.028 1.21-.148.047-.025.094-.055.134-.092.183-.16.274-.4.339-.628.096-.344.13-.703.13-1.062 0-1.285-.375-2.43-1.123-3.438-.82-1.092-1.849-1.639-3.089-1.639zm97.087 13.178c0-.881.072-1.743.054-2.619-.027-1.294-.054-2.591-.079-3.886-.012-.576.017-1.123-.04-1.703-.052-.532-.138-1.064-.284-1.579-.22-.777-.589-1.576-1.225-2.101-.985-.814-2.743-1.22-5.27-1.22-.235 0-.601.054-1.091.16-.973.226-1.968.604-2.966.647-.559.022-.965.014-1.507-.122-.225-.057-.567-.168-.782-.25-.139-.054-.272-.106-.401-.16-.129-.053-.253-.107-.369-.162-.059-.027-.171-.099-.23-.034-.052.057-.037.247-.042.329-.008.151.01.31.022.46.027.31.077.62.154.921.143.58.386 1.109.69 1.619.663 1.114 1.542 1.67 2.636 1.67.406 0 .901-.106 1.478-.321.75-.258 1.124-.525 1.124-.805 0-.148-.055-.349-.161-.594-.107-.245-.161-.445-.161-.594 0-.727.45-1.094 1.349-1.094 1.113 0 1.67.708 1.67 2.122 0 .62-.311 1.113-.933 1.477-.579.235-1.146.473-1.703.708-.727.3-1.522.59-2.378.869-1.285.408-2.337 1.017-3.151 1.831-.631.661-1.153 1.51-1.28 2.426-.062.448-.054.903-.047 1.356.018 1.134.75 2.226 1.617 2.904.985.792 2.195 1.188 3.631 1.188.764 0 1.519-.161 2.222-.46.386-.164.755-.37 1.107-.6.215-.143.502-.514.772-.534.312-.02.334.807.631 1.01.057.04.121.064.193.071.728.085 1.49.03 2.225.03h2.262c.33 0 .659-.012.986-.012.012 0 .027 0 .037-.008.024-.017.015-.054.002-.081-.398-.896-.762-1.867-.762-2.86zm-5.5-.587c-.549 1.139-1.918 1.639-3.077 1.112-.366-.166-.68-.424-.913-.74-.49-.671-.591-1.552-.265-2.312.245-.367 1.438-1.619 4.26-3.708.272 3.5.111 5.223-.005 5.648zM156.975 4.856c-.971 0-1.894.347-2.696.874-.284.188-.792.829-1 .369-.106-.236.027-.533-.042-.77-.094-.324-.671-.173-.913-.173h-4.329c-.151 0-.646-.072-.743.042-.131.15.092.45.154.589.099.213.195.425.292.64.188.424.284.87.284 1.337v11.5c0 .463-.047.935-.197 1.376-.065.186-.147.366-.255.535-.087.133-.32.311-.198.485 1.324.02 2.648.01 3.972.01h1.896c.168 0 .411.032.567-.05.23-.121-.062-.384-.141-.525-.126-.23-.235-.47-.32-.72-.165-.488-.242-1-.242-1.515 0-1.007.047-1.985-.003-2.99-.056-1.175-.081-2.351-.071-3.527.007-.821.024-1.646.069-2.467.035-.641.111-1.273.522-1.795.322-.413.763-.619 1.319-.619.401 0 .726.268.971.802.2.401.302.837.302 1.305 0 .435-.052.868-.154 1.292-.054.223-.124.443-.205.66-.04.102-.268.461-.173.552.034.033.086.043.133.048 1.342.108 2.723.027 4.072.027.252 0 .512.02.76-.045.042-.01.079-.022.111-.034.176-.07.235-.169.322-.364.225-.495.309-1.02.309-1.562 0-1.337-.391-2.53-1.171-3.577-.841-1.143-1.91-1.71-3.202-1.71zm28.674 16.197c-.03-.123-.102-.23-.166-.339-.119-.195-.265-.428-.302-.656-.032-.195-.129-.297-.188-.49-.072-.237-.124-.604-.124-.856V16.42c0-1.79-.116-3.364-.133-5.16-.023-2.308.089-3.48.111-5.449.015-1.193.022-2.62.022-3.814V.992c0-.217.013-.42.057-.636.047-.222.047-.277-.183-.297-.146-.012-.295.01-.441.01h-1.532c-1.359 0-2.774-.153-4.123-.005-.062.008-.134.02-.166.072-.025.04-.022.09-.01.136.037.154.23.18.364.265.156.101.27.218.388.354.114.131.169.413.218.577.156.514.221 1.054.221 1.591 0 3.136.052 6.27.039 9.406-.01 2.081-.039 4.163-.039 6.247 0 .468-.067.933-.206 1.378-.069.228-.158.453-.262.669-.042.086-.282.418-.225.54.002.007.007.012.012.02.022.024.059.026.091.029 1.354.057 2.723-.013 4.077-.017l1.794-.008c.169 0 .337-.015.508-.015.047 0 .099 0 .138-.024.072-.05.08-.151.06-.23zm-58.066-3.257c-.307.136-.288.46-.674.56-.359.093-.745.041-1.076-.12-.369-.18-.53-.541-.53-.94 0-1.277-.064-2.56-.052-3.859.01-1.133.017-2.264.03-3.398.007-.698.029-1.396.037-2.094.007-.797.421-.839 1.141-.839.262 0 .532-.015.794 0 .248.015.431-.027.429-.314V6.17c0-.158.056-.453-.01-.599-.099-.212-.414-.138-.594-.138h-.748c-.633 0-.945.022-1.007-.673-.037-.421.044-.837.044-1.255v-2.31c0-.262.122-.764-.091-.97-.02-.017-.042-.035-.067-.047-.309-.163-.693.188-.928.352-.312.215-.721.38-.874.73 0 0-1.567 2.737-3.245 4.306-.235.171-.46.354-.676.547-.215.194-.428.377-.643.547-.092.075-.015.226.049.29.245.252.701-.126.983.082.26.193.158.747.158 1.017.003 1.077.01 2.15.02 3.228.02 2.126.042 4.25.042 6.376 0 .556.042.952.129 1.188.277.856.765 1.537 1.463 2.041.695.503 1.505.755 2.425.755 1.114 0 1.983-.3 2.604-.9.354-.342.607-.775.768-1.238.126-.361.151-.743.259-1.107.033-.116.243-.774-.16-.596zm17.773 2.854c-.091-.183-.17-.374-.23-.57-.128-.42-.178-.863-.178-1.304v-.126c0-1.787-.059-3.572-.104-5.359-.022-.898.03-1.834.057-2.735.007-.274.057-.79.062-1.06.012-.531-.015-.588-.015-1.024v-2.55c0-.403.178-1.039-.327-1.18-.391-.109-.794.09-1.161.2l-1.658.506c-.52.158-1.042.312-1.562.462l-.792.233c-.198.06-.616.126-.527.433.037.124.154.203.248.295.153.153.222.356.314.552.074.156.104.334.096.525-.007.163 0 .324 0 .475 0 1.623-.032 3.247-.059 4.87-.017 1.102.059 2.186.059 3.293 0 .62-.257 1.22-.772 1.8-.492.578-1.049.868-1.67.868-.622 0-1.094-.258-1.414-.772-.156-.245-.272-.515-.346-.795-.193-.735-.211-1.54-.213-2.294-.003-.938.007-1.877.025-2.815.032-1.856.084-4.682.084-6.539 0-.2.01-.406.017-.609.008-.312.183-.594-.21-.73-.245-.084-.411-.037-.639.04-.332.109-.663.218-.995.329l-1.953.646c-.329.109-.658.218-.985.33-.163.054-.329.108-.492.165-.134.045-.352.074-.466.153-.101.072-.106.245-.047.34.018.03.042.054.065.079.193.225.277.522.341.804.119.52.159 1.082.159 1.651v7.252c0 2.144.933 3.676 2.796 4.596.557.278 1.137.419 1.736.419.985 0 1.863-.151 2.636-.45.299-.13.636-.31 1.012-.548.28-.175 1.267-1.138 1.324-.376.02.272-.299 1.052.121 1.186.134.042.352-.005.495-.005h3.218c.248 0 2.218.119 2.188-.22-.007-.087-.104-.14-.141-.211-.04-.064-.059-.156-.097-.23zm-28.028-.258c-.084-.26-.163-.524-.228-.79-.101-.405-.212-.754-.269-1.23-.05-.422-.04-.616-.04-1.019 0-.745.025-1.666.022-2.4 0-1.662.208-3.327.02-4.983-.141-1.235-.483-2.673-1.492-3.508-.985-.814-2.743-1.22-5.27-1.22-.235 0-.601.055-1.091.161-.28.064-.505.111-.676.144-.171.032-.312.06-.418.079-.409.042-.827.148-1.458.223-.555.064-.995.091-1.673.014l-.661-.11c-.107 0-.231-.028-.369-.08-.245 0-.547-.258-.753-.371-.032-.018-.064-.038-.101-.038-.052-.002-.102.03-.134.072-.143.196-.049.597-.029.822.029.297.079.592.151.881.143.567.376 1.111.688 1.607.663 1.113 1.542 1.67 2.636 1.67.406 0 .901-.106 1.477-.322.75-.257 1.124-.524 1.124-.804 0-.148-.054-.349-.161-.594-.106-.245-.161-.446-.161-.594 0-.728.451-1.094 1.349-1.094 1.114 0 1.671.708 1.671 2.121 0 .621-.312 1.114-.933 1.478-.579.235-1.146.473-1.703.708-.728.3-1.522.589-2.379.868-1.606.508-3.579 1.567-4.16 3.243-.211.609-.339 1.26-.339 1.898 0 1.394.547 2.517 1.638 3.374.985.792 2.195 1.188 3.631 1.188.757 0 1.507-.159 2.205-.453.374-.158.733-.351 1.072-.574.181-.117.354-.243.525-.374.091-.072.203-.24.334-.235.191.005.233.346.282.485.094.26.161.45.319.56.09.061.211.098.382.11.269.018.544 0 .814 0h2.166c.717 0 1.467.065 2.173-.056.039-.008.086-.022.101-.06.025-.069-.116-.297-.141-.366-.042-.139-.091-.285-.141-.43zm-6.017-2.61c-.554 1.138-1.926 1.63-3.081 1.096-.364-.169-.681-.426-.911-.743-.488-.673-.584-1.554-.255-2.312.245-.366 1.445-1.611 4.274-3.688.26 3.5.092 5.22-.027 5.646zm-9.532 3.937c-.121.003-.227.003-.349-.025-.106-.024-.217-.091-.309-.15-.181-.117-.334-.273-.455-.449-.203-.294-.399-.722-.419-1.084-.017-.344-.086-1.678-.086-2.331-.003-.938.007-.062.024-1 .003-.117 0-.235 0-.352v-.044c.023-.362.038-.708.03-1.047-.032-1.456-.027-2.909-.027-4.364 0-.81-.126-1.567-.379-2.267-.252-.7-.609-1.297-1.066-1.79-.46-.492-1.02-.88-1.676-1.165-.659-.285-1.391-.429-2.203-.429-.73 0-1.47.085-2.166.322-.322.11-.63.25-.92.428-.24.149-.52.434-.822.421-.552-.022.044-.732-.307-.955-.156-.097-.371-.052-.542-.052h-4.322c-.208 0-.982-.164-1.101.04-.025.041-.032.09-.035.14-.012.223.074.446.136.656.102.337.193.676.27 1.02.347 1.542.223 3.131.228 4.7.002 1.44.022 2.879.054 4.32.013.586-.07 1.16-.07 1.752v.876c0 .52-.051 1.044-.197 1.544-.064.216-.144.426-.248.624-.062.122-.336.396-.148.5.223.122.624.057.874.057h4.61c.258 0 1.134.18 1.102-.24-.012-.166-.138-.322-.205-.468-.084-.188-.151-.383-.206-.581-.114-.426-.158-.867-.158-1.307 0-1.884-.045-3.772-.035-5.66.005-.788.018-1.573.035-2.357.012-.515-.022-1.064.032-1.577.067-.614.307-1.124.723-1.527.416-.406.93-.609 1.544-.609.525 0 .98.203 1.32.609.339.406.717.871.717 1.396 0 1.42-.012 2.839-.027 4.26v.089c-.005.455-.01.91-.012 1.366 0 .141.005.28.012.42v.538l.042 2.821s-.01.547.146 1.263c.295 1.341 1.183 3.27 3.844 3.245.134 0 .218-.005.349-.003.07.005.243.01.31.003.462-.05.858-.1 1.294-.26.354-.131.728-.315.876-.68.069-.172.275-.647-.082-.637zM190.032 0C191.671 0 193 1.33 193 2.968s-1.329 2.952-2.968 2.952c-1.638 0-2.952-1.316-2.952-2.952S188.394 0 190.032 0zm0 5.445c1.372 0 2.478-1.106 2.478-2.477 0-1.372-1.106-2.478-2.478-2.478-1.371 0-2.477 1.106-2.477 2.478 0 1.37 1.106 2.477 2.477 2.477zm.644-2.113l.517 1.428h-.628l-.463-1.287h-.379V4.76h-.589V1.176h.938c.797 0 1.119.56 1.119 1.106.002.503-.178.866-.515 1.05zm-.629-.436c.532 0 .574-.42.574-.602 0-.168-.069-.544-.547-.544h-.349v1.148h.322v-.002z"/>
    </g>
    <defs>
        <clipPath id="prefix__clip0">
            <path fill="#fff" d="M0 0H193V28.516H0z"/>
        </clipPath>
    </defs>
</svg>
