<svg width="378" height="54" viewBox="0 0 378 54" fill="none" xmlns="http://www.w3.org/2000/svg">
<path fill-rule="evenodd" clip-rule="evenodd" d="M10.8022 29.3296V15.1044L6.53468 17.0442C6.53468 17.0442 5.43546 19.5013 5.62944 23.0576C5.75876 25.838 7.3106 29.1356 8.53914 30.5581L10.8022 29.3296ZM23.3463 0.0386716C24.3808 0.103331 26.062 0.620611 27.2905 1.71983C28.6484 3.01303 28.907 4.95283 28.4544 6.7633C28.0664 8.31514 27.5492 9.15572 25.9327 10.2549C24.3162 11.3542 22.3117 11.2895 22.3117 11.2895V18.1434L25.674 20.8592L22.3117 23.5749V32.9506C22.3117 32.9506 25.674 31.0108 27.7431 26.7432C27.7431 26.7432 27.8078 26.4846 28.0018 26.0966C28.1958 27.2605 28.0664 29.5883 26.7732 32.5626C25.868 34.6964 24.0575 36.8302 21.8591 38.1234C17.9148 40.3218 14.9405 40.5158 11.7075 39.8692C7.9572 39.0933 4.59489 37.0241 2.26713 33.3385C0.650631 30.7521 -0.060628 27.7778 0.00403194 24.5448C0.133352 18.2081 4.85353 12.7767 10.285 10.7076C10.3411 10.6851 10.3943 10.6636 10.4453 10.6431C10.9818 10.4265 11.2744 10.3084 12.1601 10.1903L12.16 10.1904C11.7074 10.5136 11.2548 10.8369 10.6083 11.2895C8.86244 12.4534 7.37526 14.7165 6.72866 16.4623L17.2682 11.7421V26.4846L8.73312 30.7521C9.70302 32.11 12.6774 34.1144 15.1344 34.4377C19.402 34.8904 21.9237 33.0152 21.9237 33.0152V23.4456L18.6261 20.7298L21.9237 18.0141V11.2895C20.2846 11.1139 18.3274 10.6202 17.012 10.2885C16.8745 10.2538 16.744 10.2209 16.6216 10.1903C14.8112 9.673 8.47448 7.92718 7.50458 7.7332C6.53468 7.60388 5.30614 7.60388 4.53023 8.31514C3.81897 8.96174 3.30169 10.1256 3.62499 11.2248C3.81897 11.8068 4.20693 12.1947 4.53023 12.518C4.53023 12.518 4.14227 12.518 3.49567 12.0654C2.33179 11.3542 1.42655 9.93164 1.29723 8.25048C1.16791 5.98738 2.13781 3.91827 4.01295 2.56041C5.62944 1.52585 7.43992 0.87925 9.5737 1.13789C11.3807 1.40141 13.5602 2.10326 15.7934 2.82238L15.7934 2.82238C17.3959 3.33843 19.026 3.86336 20.5659 4.24157C21.9884 4.56487 23.1523 4.69419 24.1222 4.11225C24.5748 3.78895 25.4154 2.88371 24.7688 1.71983C24.0974 0.544893 22.845 0.386613 21.682 0.239619C21.5009 0.216735 21.322 0.194123 21.1478 0.167991C22.247 -0.0259884 22.5057 -0.0259884 23.3463 0.0386716ZM64.3406 25.644L59.5558 29.1356V17.4322L64.3406 25.644ZM64.2113 14.3931C64.2113 14.3931 60.9783 16.3329 58.7799 17.6261C56.5814 18.9193 53.6717 20.3419 53.6717 20.3419V33.9204L51.7319 35.4723L51.9906 35.7956L53.8657 34.2437L59.8144 39.6105L70.16 31.3987L69.9014 31.0754L64.2113 35.5369L59.4911 31.1401V29.5236L68.9315 22.605L64.2113 14.3931ZM43.8435 43.8781C40.9338 45.3006 38.5413 45.1067 37.1835 44.7834C37.2923 44.7485 37.3969 44.7155 37.498 44.6836C38.8995 44.2411 39.6157 44.0149 41.0631 42.3263C42.7442 40.4511 42.7442 36.5715 42.7442 33.4679V21.7644L39.8345 18.1435L37.8947 19.8246V33.3385L39.5759 34.955L41.1277 33.7265L41.3864 34.0498L34.7264 39.2873L30.5235 35.343L28.9717 36.5069L28.7777 36.1836L31.8814 33.8558V9.5437C31.8268 8.28779 31.0805 7.95414 30.655 7.76392C30.5766 7.72889 30.5091 7.69873 30.4589 7.66856L37.8947 1.91383V19.2427L43.8435 14.1346L48.499 19.3073L50.5681 17.8202L50.8267 18.1435L48.7576 19.6953V30.4935L48.6283 35.4077C48.6283 38.8993 47.0118 42.2616 43.8435 43.8781ZM83.4153 43.5548C80.7643 43.2315 79.665 41.615 79.665 40.3865C79.665 39.5459 80.441 37.9941 82.0575 37.7354C83.674 37.5414 85.3551 38.2527 86.713 39.9339L92.8557 33.1446L92.5324 32.8859L90.8512 34.7611C89.1701 32.8213 86.7776 31.6574 84.4499 31.2694V10.5783L100.421 39.6752C100.421 39.6752 100.55 39.9985 101.261 39.9985C101.843 39.9985 101.714 39.5459 101.714 39.5459V10.255C103.007 10.1903 105.012 9.47904 105.982 8.50914C109.085 5.34081 107.792 1.91383 107.469 1.59053C107.275 3.07771 106.111 4.62955 104.171 4.62955C101.649 4.62955 100.098 2.75441 100.098 2.75441L93.8902 9.67302L94.2135 9.93166L95.9593 7.9272C98.0931 9.93166 99.7096 10.061 101.326 10.1903V27.1959L89.4287 5.66411C88.3295 3.91829 86.713 2.30179 84.1912 2.30179C81.2169 2.30179 79.1478 4.88819 78.8891 7.08662C78.6305 9.60836 78.8891 10.1903 78.8891 10.1903C78.8891 10.1903 79.3417 7.40992 81.0876 7.40992C82.6394 7.40992 83.48 8.8971 84.0619 9.93166V16.139L83.9115 16.1508C82.1996 16.2835 78.2349 16.5908 77.9839 20.7945C77.9839 22.411 78.9538 24.0922 79.859 24.6741C81.0229 25.45 81.8635 25.3854 81.8635 25.3854C81.8635 25.3854 80.5056 24.6741 80.8936 23.2516C81.2815 21.9584 83.9326 21.7644 83.9973 22.2817V31.0755C82.7041 31.0755 78.6305 31.2048 76.7553 34.6964C75.6561 36.8302 75.7208 39.2226 76.8847 40.9038C77.9839 42.3909 79.9883 44.1368 83.4153 43.5548ZM112.448 29.1356L117.232 25.644L112.448 17.4322V29.1356ZM111.672 17.6261C113.87 16.3329 117.103 14.3931 117.103 14.3931L121.823 22.605L112.383 29.5236V31.1401L117.103 35.5369L122.793 31.0754L123.052 31.3987L112.706 39.6105L106.758 34.2437L104.882 35.7956L104.624 35.4723L106.564 33.9204V20.3419C106.564 20.3419 109.473 18.9193 111.672 17.6261ZM131.587 39.7398L126.543 35.5369L124.345 37.1534L124.151 36.8301L126.414 35.149V23.4455C126.477 21.0717 125.41 20.1542 124.333 19.2294C123.211 18.2649 122.079 17.2925 122.211 14.6518C122.341 12.3887 124.474 10.7075 125.638 10.1256C126.802 9.54365 128.095 9.54365 128.095 9.54365C128.095 9.54365 126.026 10.8369 126.543 12.712C126.883 13.9583 128.017 14.7083 129.19 15.4838C130.694 16.4785 132.262 17.5152 132.298 19.6953V32.9505L135.919 35.8602L136.889 35.0843V20.6652L134.949 18.7254L139.993 14.2638L144.584 18.3374L142.838 20.2125V33.0152L147.17 36.5715L147.946 36.0542V20.7298L146.006 18.9193L151.05 14.3285L155.77 18.2081L157.645 16.5269L157.904 16.8502L153.636 20.6005V33.1445L142.773 39.8045L137.212 35.4076L131.587 39.7398ZM348.78 29.1356L353.564 25.644L348.78 17.4322V29.1356ZM348.004 17.6261C350.202 16.3329 353.435 14.3931 353.435 14.3931L358.22 22.6696L348.715 29.5236V31.1401L353.435 35.5369L359.125 31.0754L359.384 31.3987L349.038 39.6105L343.089 34.2437L341.214 35.7956L340.956 35.4723L342.896 33.9204V20.3419C342.896 20.3419 345.805 18.9193 348.004 17.6261ZM304.94 20.0832L305.199 20.4065L307.139 18.7254L310.048 21.9584V33.2092L308.626 34.5024L313.152 39.5459L317.743 35.0197L315.868 33.0152V19.5013L317.032 18.5314L320.2 22.2817V33.4678L318.971 34.6964L323.239 39.4166L327.765 34.8904L326.084 33.1445V19.5013L327.313 18.5314L330.61 22.217V33.3385L329.511 34.4377L334.166 39.5459L340.503 33.7265L340.18 33.4678L338.693 34.8257L336.365 32.2393V19.566L338.628 17.8201L338.369 17.4968L336.106 19.2427L331.839 14.4578L325.696 19.2427L321.428 14.5872L315.544 19.2427L311.212 14.6518L304.94 20.0832ZM292.461 20.0186L292.202 19.7599L298.151 14.5225L302.483 19.6306L304.488 17.9494L304.746 18.2081L302.612 20.0186V32.5626L305.134 35.4076L306.88 33.8558L307.139 34.1791L301.125 39.5459L296.987 34.761L295.112 36.3775L294.853 36.0542L296.664 34.5024V21.6351L294.077 18.596L292.461 20.0186ZM293.883 9.09105L298.41 4.95282L302.095 9.02639L297.569 13.1646L293.883 9.09105ZM275.326 15.1044V29.3296L273.063 30.5582C271.834 29.1356 270.282 25.838 270.153 23.0576C269.959 19.5013 271.058 17.0442 271.058 17.0442L275.326 15.1044ZM291.814 1.71984C290.586 0.620626 288.905 0.103346 287.87 0.0386864C287.029 -0.0259735 286.771 -0.0259735 285.607 0.232666C285.781 0.258797 285.96 0.281409 286.141 0.304293C287.304 0.451287 288.556 0.609565 289.228 1.7845C289.874 2.94838 289.034 3.85362 288.581 4.17692C287.611 4.75886 286.447 4.62954 285.025 4.30624C283.485 3.92803 281.855 3.40309 280.252 2.88704C278.019 2.16793 275.84 1.46608 274.033 1.20256C271.899 0.943925 270.089 1.59052 268.472 2.62508C266.597 4.0476 265.692 6.05206 265.821 8.31516C265.95 9.99631 266.855 11.4188 268.019 12.1301C268.666 12.5827 269.054 12.5827 269.054 12.5827C268.731 12.2594 268.343 11.8715 268.149 11.2895C267.825 10.1903 268.343 9.02641 269.054 8.37982C269.83 7.66856 271.058 7.66856 272.028 7.79788C272.615 7.87614 275.168 8.57014 277.508 9.20627C279.034 9.62125 280.47 10.0116 281.21 10.1903L281.402 10.2385L281.6 10.2885C282.916 10.6203 284.873 11.1139 286.512 11.2895V18.0788L283.214 20.7945L286.512 23.5102V33.0799C286.512 33.0799 283.99 34.955 279.723 34.5024C277.266 34.1791 274.291 32.1747 273.322 30.8168L281.792 26.5492V11.8068L271.252 16.527C271.899 14.7811 273.386 12.518 275.132 11.3542C275.777 10.9026 276.229 10.5798 276.681 10.2572L276.684 10.255C275.798 10.373 275.506 10.4911 274.969 10.7077C274.918 10.7283 274.865 10.7498 274.809 10.7722C269.377 12.8413 264.657 18.2728 264.528 24.6095C264.463 27.8424 265.174 30.8168 266.791 33.4032C269.119 37.0888 272.481 39.1579 276.231 39.9338C279.4 40.5804 282.374 40.3865 286.318 38.188C288.517 36.9595 290.327 34.8257 291.297 32.5626C292.59 29.5883 292.719 27.2605 292.525 26.0966C292.332 26.4846 292.267 26.7432 292.267 26.7432C290.198 31.0108 286.835 32.9506 286.835 32.9506V23.5749L290.198 20.8592L286.835 18.1435V11.2895C286.835 11.2895 288.84 11.3542 290.456 10.255C292.073 9.15573 292.59 8.31516 292.978 6.76332C293.431 4.95284 293.172 3.01304 291.814 1.71984ZM366.884 23.7688L369.147 25.7086C369.147 25.7086 373.997 21.829 375.807 18.2081C375.807 18.2081 373.609 21.1824 370.635 20.2772C368.178 19.5013 366.884 17.0442 366.884 17.0442V23.7688ZM361.453 34.8903C361.453 34.8903 363.587 31.334 367.272 32.11C370.764 32.8212 371.993 36.5715 371.993 36.5715V28.0364L369.535 25.9026C368.885 26.5528 368.116 27.2698 367.315 28.017C364.769 30.3908 361.896 33.0707 361.453 34.8903ZM364.945 41.421C364.233 41.615 361.259 40.9037 360.548 37.8C359.856 34.9093 361.853 32.8736 364.815 29.8528L365.074 29.5882L361.324 26.1613V19.6953C361.324 19.6953 364.039 18.3374 366.173 16.9795C368.307 15.6217 370.505 14.1992 370.505 14.1992C370.505 14.1992 372.122 16.2036 373.932 16.0743C376.777 15.8157 376.648 13.6172 376.519 13.0999C376.971 13.9405 378.265 16.5269 373.35 22.2817L377.424 25.5793V33.9851C377.424 33.9851 372.704 36.4422 368.307 39.6752C368.307 39.6752 365.85 36.5715 363.651 38.0587C362.229 38.9639 362.875 40.6451 364.945 41.421ZM207.562 36.5715L202.325 31.8513V17.2382L207.562 22.0877V36.5715ZM214.869 18.3374L213.058 20.0186L206.463 14.3285C206.463 14.3285 204.006 15.751 201.808 16.9796C199.351 18.4021 196.441 19.6953 196.441 19.6953V34.0498L194.695 35.537L194.954 35.8603L196.57 34.4377L202.778 39.6752C202.778 39.6752 205.299 38.1233 207.627 36.7655C210.019 35.4723 213.382 33.6618 213.382 33.6618V20.2772L215.128 18.6607L214.869 18.3374ZM225.214 18.6607L229.159 14.6518C229.159 14.6518 229.676 15.1044 230.193 15.3631L230.213 15.3731C230.51 15.5222 231.706 16.1237 232.78 15.4924C233.362 15.1691 233.426 15.1044 234.073 14.4579L234.073 14.4578C234.202 17.5615 232.715 19.76 230.84 20.6652C230.064 21.0532 227.866 21.7644 225.473 18.9194V33.3385L227.93 35.537L229.999 33.7911L230.258 34.1144L223.727 39.5459L218.813 35.0197L217.003 36.7008L216.679 36.3775L219.395 33.9205V21.4411L217.326 18.6607L215.516 20.2126L215.257 19.9539L221.529 14.2639L225.214 18.6607ZM249.009 14.1345L241.767 24.6741L251.078 39.6105L257.997 33.5325L257.738 33.2092L255.734 34.955L245.647 19.6953L246.1 18.984C246.1 18.984 248.557 21.0531 251.143 20.6005C254.117 20.0832 255.54 16.9149 255.928 14.0698C255.928 14.0698 253.924 16.2683 251.66 15.6863C249.979 15.2984 249.009 14.1345 249.009 14.1345ZM235.819 10.5782C235.819 8.31511 234.913 6.8926 233.685 7.02192L241.638 1.46116V32.9505L243.707 35.149L245.324 33.7911L245.582 34.1144L239.181 39.6752L234.849 35.6016L233.103 37.1534L232.844 36.8301L235.883 34.1791V10.5782H235.819ZM182.668 20.4065C184.026 20.4065 184.931 19.4366 184.931 19.4366V23.7688C184.931 23.7688 184.026 22.7989 182.668 22.7989C181.31 22.7989 180.405 23.7688 180.405 23.7688V19.4366C180.405 19.4366 181.31 20.4065 182.668 20.4065ZM181.892 7.47454L184.931 10.1903V18.79C184.931 18.79 184.026 19.8892 182.668 19.8892C181.31 19.8892 180.405 18.7254 180.405 18.7254V8.63841L181.892 7.47454ZM183.574 38.2527C182.28 39.3519 180.405 38.8346 180.405 38.8346V24.4154C180.405 24.4154 181.31 23.2516 182.668 23.2516C184.091 23.2516 184.931 24.3508 184.931 24.3508V35.2783C184.931 35.2783 185.061 37.0241 183.574 38.2527ZM167.279 6.69862C168.702 6.76328 169.542 7.92716 169.542 10.0609H169.607V18.4667C167.603 18.6607 165.986 18.984 164.693 20.7945C163.076 22.9929 164.305 25.3853 164.887 26.0966C166.115 27.4545 167.538 27.2605 167.538 27.2605C167.538 27.2605 165.792 26.5492 166.568 24.9974C167.085 23.9628 169.413 23.7688 169.542 24.3508V38.382C169.542 38.382 165.21 39.8691 165.081 43.6841C164.887 46.3351 166.439 48.9862 168.572 49.8914C171.476 51.0974 175.336 50.267 179.15 49.4463C180.858 49.0789 182.556 48.7135 184.155 48.5336C186.548 48.2749 187.259 48.5336 187.582 49.6328C188.164 51.7666 185.966 53.0598 185.966 53.0598C185.966 53.0598 190.492 52.4778 191.462 48.8569C192.044 46.9171 192.109 44.1367 188.294 42.3909C186.142 41.3824 181.841 42.209 177.825 42.9808C174.117 43.6934 170.652 44.3593 169.348 43.4901C167.99 42.5849 167.99 41.227 168.378 40.3218C169.542 37.5414 174.263 38.1233 177.237 38.576C178.38 38.7419 179.565 39.0656 180.763 39.3926C183.764 40.2123 186.841 41.0527 189.522 39.4812C191.203 38.382 191.462 36.5715 191.591 34.8257V7.60386L193.854 5.66406L193.596 5.34076L191.397 7.2159L186.742 3.07766L180.405 8.18579V3.40096H180.017V38.7053C180.017 38.7053 179.112 38.4466 178.207 38.2527C177.366 38.0587 176.202 37.9294 176.202 37.9294V8.63841C176.202 6.50464 175.297 4.11222 172.193 3.3363C169.219 2.62504 167.279 4.17688 166.245 5.2761C164.37 7.28056 164.757 9.47899 164.757 9.47899C164.757 9.47899 165.275 6.63396 167.279 6.69862Z" fill="url(#paint0_linear)"/>
<defs>
<linearGradient id="paint0_linear" x1="0" y1="0" x2="357.757" y2="0" gradientUnits="userSpaceOnUse">
<stop stop-color="#C0A5CB"/>
<stop offset="0.203125" stop-color="#81B9CB"/>
<stop offset="0.395833" stop-color="#87A5BD"/>
<stop offset="0.604167" stop-color="#88B7B2"/>
<stop offset="0.792846" stop-color="#B8A2CB"/>
<stop offset="1" stop-color="#98AFD9"/>
</linearGradient>
</defs>
</svg>
