<svg width="146" height="157" viewBox="0 0 146 157" fill="none" xmlns="http://www.w3.org/2000/svg">
<path d="M73.3001 78.4C94.6735 78.4 112 61.0734 112 39.7C112 18.3266 94.6735 1 73.3001 1C51.9267 1 34.6001 18.3266 34.6001 39.7C34.6001 61.0734 51.9267 78.4 73.3001 78.4Z" stroke="url(#paint0_linear)" stroke-miterlimit="10" stroke-linecap="round" stroke-linejoin="round"/>
<path d="M73.3001 155.9C94.6735 155.9 112 138.573 112 117.2C112 95.8266 94.6735 78.5 73.3001 78.5C51.9267 78.5 34.6001 95.8266 34.6001 117.2C34.6001 138.573 51.9267 155.9 73.3001 155.9Z" stroke="url(#paint1_linear)" stroke-miterlimit="10" stroke-linecap="round" stroke-linejoin="round"/>
<path d="M39.7 136.6C61.0734 136.6 78.4 119.274 78.4 97.9002C78.4 76.5268 61.0734 59.2002 39.7 59.2002C18.3266 59.2002 1 76.5268 1 97.9002C1 119.274 18.3266 136.6 39.7 136.6Z" stroke="url(#paint2_linear)" stroke-miterlimit="10" stroke-linecap="round" stroke-linejoin="round"/>
<path d="M106.8 97.7999C128.174 97.7999 145.5 80.4733 145.5 59.0999C145.5 37.7265 128.174 20.3999 106.8 20.3999C85.4267 20.3999 68.1001 37.7265 68.1001 59.0999C68.1001 80.4733 85.4267 97.7999 106.8 97.7999Z" stroke="url(#paint3_linear)" stroke-miterlimit="10" stroke-linecap="round" stroke-linejoin="round"/>
<path d="M106.8 136.6C128.174 136.6 145.5 119.274 145.5 97.9002C145.5 76.5268 128.174 59.2002 106.8 59.2002C85.4267 59.2002 68.1001 76.5268 68.1001 97.9002C68.1001 119.274 85.4267 136.6 106.8 136.6Z" stroke="url(#paint4_linear)" stroke-miterlimit="10" stroke-linecap="round" stroke-linejoin="round"/>
<path d="M39.7 97.7999C61.0734 97.7999 78.4 80.4733 78.4 59.0999C78.4 37.7265 61.0734 20.3999 39.7 20.3999C18.3266 20.3999 1 37.7265 1 59.0999C1 80.4733 18.3266 97.7999 39.7 97.7999Z" stroke="url(#paint5_linear)" stroke-miterlimit="10" stroke-linecap="round" stroke-linejoin="round"/>
<path d="M140.4 39.7002L73.3002 156L6.2002 39.7002H140.4Z" stroke="url(#paint6_linear)" stroke-miterlimit="10" stroke-linecap="round" stroke-linejoin="round"/>
<path d="M73.3001 117.2C94.6735 117.2 112 99.8732 112 78.4998C112 57.1264 94.6735 39.7998 73.3001 39.7998C51.9267 39.7998 34.6001 57.1264 34.6001 78.4998C34.6001 99.8732 51.9267 117.2 73.3001 117.2Z" stroke="url(#paint7_linear)" stroke-miterlimit="10" stroke-linecap="round" stroke-linejoin="round"/>
<path d="M51.2001 110.3C50.7001 106.6 49.8001 102.4 48.0001 98.5002C44.1001 89.8002 39.8001 74.7002 47.6001 62.2002C51.7001 55.6002 53.1001 49.7002 53.4001 45.2002" stroke="url(#paint8_linear)" stroke-miterlimit="10" stroke-linecap="round" stroke-linejoin="round"/>
<path d="M95.4002 110.3C95.9002 106.6 96.8002 102.3 98.6002 98.5002C102.5 89.8002 106.8 74.7002 99.0002 62.2002C94.9002 55.6002 93.5002 49.7002 93.2002 45.2002" stroke="url(#paint9_linear)" stroke-miterlimit="10" stroke-linecap="round" stroke-linejoin="round"/>
<path d="M89.7003 90.4C80.7003 90.4 73.3003 83.1 73.3003 74" stroke="url(#paint10_linear)" stroke-miterlimit="10" stroke-linecap="round" stroke-linejoin="round"/>
<path d="M73.3003 65.1001V117.2" stroke="url(#paint11_linear)" stroke-miterlimit="10" stroke-linecap="round" stroke-linejoin="round"/>
<path d="M56.9004 90.4C65.9004 90.4 73.3004 83.1 73.3004 74" stroke="url(#paint12_linear)" stroke-miterlimit="10" stroke-linecap="round" stroke-linejoin="round"/>
<defs>
<linearGradient id="paint0_linear" x1="34.6001" y1="1" x2="107.967" y2="1" gradientUnits="userSpaceOnUse">
<stop stop-color="#C0A5CB"/>
<stop offset="0.203125" stop-color="#81B9CB"/>
<stop offset="0.395833" stop-color="#87A5BD"/>
<stop offset="0.604167" stop-color="#88B7B2"/>
<stop offset="0.792846" stop-color="#B8A2CB"/>
<stop offset="1" stop-color="#98AFD9"/>
</linearGradient>
<linearGradient id="paint1_linear" x1="34.6001" y1="78.5" x2="107.967" y2="78.5" gradientUnits="userSpaceOnUse">
<stop stop-color="#C0A5CB"/>
<stop offset="0.203125" stop-color="#81B9CB"/>
<stop offset="0.395833" stop-color="#87A5BD"/>
<stop offset="0.604167" stop-color="#88B7B2"/>
<stop offset="0.792846" stop-color="#B8A2CB"/>
<stop offset="1" stop-color="#98AFD9"/>
</linearGradient>
<linearGradient id="paint2_linear" x1="1" y1="59.2002" x2="74.3667" y2="59.2002" gradientUnits="userSpaceOnUse">
<stop stop-color="#C0A5CB"/>
<stop offset="0.203125" stop-color="#81B9CB"/>
<stop offset="0.395833" stop-color="#87A5BD"/>
<stop offset="0.604167" stop-color="#88B7B2"/>
<stop offset="0.792846" stop-color="#B8A2CB"/>
<stop offset="1" stop-color="#98AFD9"/>
</linearGradient>
<linearGradient id="paint3_linear" x1="68.1001" y1="20.3999" x2="141.467" y2="20.3999" gradientUnits="userSpaceOnUse">
<stop stop-color="#C0A5CB"/>
<stop offset="0.203125" stop-color="#81B9CB"/>
<stop offset="0.395833" stop-color="#87A5BD"/>
<stop offset="0.604167" stop-color="#88B7B2"/>
<stop offset="0.792846" stop-color="#B8A2CB"/>
<stop offset="1" stop-color="#98AFD9"/>
</linearGradient>
<linearGradient id="paint4_linear" x1="68.1001" y1="59.2002" x2="141.467" y2="59.2002" gradientUnits="userSpaceOnUse">
<stop stop-color="#C0A5CB"/>
<stop offset="0.203125" stop-color="#81B9CB"/>
<stop offset="0.395833" stop-color="#87A5BD"/>
<stop offset="0.604167" stop-color="#88B7B2"/>
<stop offset="0.792846" stop-color="#B8A2CB"/>
<stop offset="1" stop-color="#98AFD9"/>
</linearGradient>
<linearGradient id="paint5_linear" x1="1" y1="20.3999" x2="74.3667" y2="20.3999" gradientUnits="userSpaceOnUse">
<stop stop-color="#C0A5CB"/>
<stop offset="0.203125" stop-color="#81B9CB"/>
<stop offset="0.395833" stop-color="#87A5BD"/>
<stop offset="0.604167" stop-color="#88B7B2"/>
<stop offset="0.792846" stop-color="#B8A2CB"/>
<stop offset="1" stop-color="#98AFD9"/>
</linearGradient>
<linearGradient id="paint6_linear" x1="6.2002" y1="39.7002" x2="133.407" y2="39.7002" gradientUnits="userSpaceOnUse">
<stop stop-color="#C0A5CB"/>
<stop offset="0.203125" stop-color="#81B9CB"/>
<stop offset="0.395833" stop-color="#87A5BD"/>
<stop offset="0.604167" stop-color="#88B7B2"/>
<stop offset="0.792846" stop-color="#B8A2CB"/>
<stop offset="1" stop-color="#98AFD9"/>
</linearGradient>
<linearGradient id="paint7_linear" x1="34.6001" y1="39.7998" x2="107.967" y2="39.7998" gradientUnits="userSpaceOnUse">
<stop stop-color="#C0A5CB"/>
<stop offset="0.203125" stop-color="#81B9CB"/>
<stop offset="0.395833" stop-color="#87A5BD"/>
<stop offset="0.604167" stop-color="#88B7B2"/>
<stop offset="0.792846" stop-color="#B8A2CB"/>
<stop offset="1" stop-color="#98AFD9"/>
</linearGradient>
<linearGradient id="paint8_linear" x1="43.2466" y1="45.2002" x2="52.871" y2="45.2002" gradientUnits="userSpaceOnUse">
<stop stop-color="#C0A5CB"/>
<stop offset="0.203125" stop-color="#81B9CB"/>
<stop offset="0.395833" stop-color="#87A5BD"/>
<stop offset="0.604167" stop-color="#88B7B2"/>
<stop offset="0.792846" stop-color="#B8A2CB"/>
<stop offset="1" stop-color="#98AFD9"/>
</linearGradient>
<linearGradient id="paint9_linear" x1="93.2002" y1="45.2002" x2="102.825" y2="45.2002" gradientUnits="userSpaceOnUse">
<stop stop-color="#C0A5CB"/>
<stop offset="0.203125" stop-color="#81B9CB"/>
<stop offset="0.395833" stop-color="#87A5BD"/>
<stop offset="0.604167" stop-color="#88B7B2"/>
<stop offset="0.792846" stop-color="#B8A2CB"/>
<stop offset="1" stop-color="#98AFD9"/>
</linearGradient>
<linearGradient id="paint10_linear" x1="73.3003" y1="74" x2="88.8457" y2="74" gradientUnits="userSpaceOnUse">
<stop stop-color="#C0A5CB"/>
<stop offset="0.203125" stop-color="#81B9CB"/>
<stop offset="0.395833" stop-color="#87A5BD"/>
<stop offset="0.604167" stop-color="#88B7B2"/>
<stop offset="0.792846" stop-color="#B8A2CB"/>
<stop offset="1" stop-color="#98AFD9"/>
</linearGradient>
<linearGradient id="paint11_linear" x1="73.3003" y1="65.1001" x2="74.2482" y2="65.1001" gradientUnits="userSpaceOnUse">
<stop stop-color="#C0A5CB"/>
<stop offset="0.203125" stop-color="#81B9CB"/>
<stop offset="0.395833" stop-color="#87A5BD"/>
<stop offset="0.604167" stop-color="#88B7B2"/>
<stop offset="0.792846" stop-color="#B8A2CB"/>
<stop offset="1" stop-color="#98AFD9"/>
</linearGradient>
<linearGradient id="paint12_linear" x1="56.9004" y1="74" x2="72.4458" y2="74" gradientUnits="userSpaceOnUse">
<stop stop-color="#C0A5CB"/>
<stop offset="0.203125" stop-color="#81B9CB"/>
<stop offset="0.395833" stop-color="#87A5BD"/>
<stop offset="0.604167" stop-color="#88B7B2"/>
<stop offset="0.792846" stop-color="#B8A2CB"/>
<stop offset="1" stop-color="#98AFD9"/>
</linearGradient>
</defs>
</svg>
