<svg width="242" height="156" viewBox="0 0 242 156" fill="none" xmlns="http://www.w3.org/2000/svg">
<path d="M-6.28039e-05 78.6494C-6.27907e-05 78.4383 0.210982 78.2272 0.422026 78.2272L64.1566 70.4165C64.3676 70.4165 64.7897 70.6276 64.7897 70.8387C64.7897 71.0498 64.5787 71.472 64.3676 71.472L0.844099 79.0716C0.422026 79.0716 0.210981 78.8605 -6.28039e-05 78.6494ZM74.2866 69.5721C74.2866 69.361 74.4976 69.1499 74.7087 69.1499L127.68 62.8168C127.891 62.8168 128.313 63.0279 128.313 63.239C128.313 63.4501 128.102 63.8723 127.891 63.8723L74.9197 70.2054C74.4976 70.2054 74.2866 69.9943 74.2866 69.5721ZM140.554 61.5502C140.554 61.3391 140.765 61.128 140.976 61.128L199.223 53.9505C199.434 53.9505 199.856 54.1616 199.856 54.3727C199.856 54.5838 199.645 55.0061 199.434 55.0061L141.187 61.9724C140.765 62.1835 140.554 61.9724 140.554 61.5502ZM212.097 52.895C212.097 52.6839 212.308 52.4728 212.519 52.4728L230.035 50.3618C230.246 50.3618 230.668 50.5729 230.668 50.784C230.668 50.9951 230.457 51.4173 230.246 51.4173L212.73 53.5283C212.308 53.5283 212.097 53.3172 212.097 52.895Z" fill="url(#paint0_linear)"/>
<path d="M0.000118176 78.6495C0.000118189 78.4384 0.211178 78.2273 0.422222 78.2273L20.8932 72.1054C21.1043 72.1054 21.5264 72.1054 21.5264 72.5276C21.5264 72.7387 21.5264 73.1609 21.1043 73.1609L0.844295 79.0717C0.422207 79.0717 0.211162 79.0717 0.000118176 78.6495ZM30.8122 69.361C30.8122 69.1499 31.0233 68.9388 31.2343 68.9388L51.4943 62.6058C51.7053 62.6058 52.1274 62.6058 52.1274 63.028C52.1274 63.2391 52.1274 63.6613 51.7053 63.6613L31.2343 69.7832C31.2343 69.7832 30.8122 69.7833 30.8122 69.361ZM61.4132 60.0726C61.4132 59.8615 61.6243 59.6504 61.8353 59.6504L82.3064 53.5284C82.5174 53.5284 82.9395 53.5284 82.9395 53.9506C82.9395 54.1617 82.9395 54.5839 82.5174 54.5839L62.0464 60.7059C61.8353 60.7059 61.6243 60.4948 61.4132 60.0726ZM92.0143 50.7841C92.0143 50.573 92.2253 50.3619 92.4364 50.3619L112.907 44.2399C113.118 44.2399 113.541 44.2399 113.541 44.6621C113.541 44.8732 113.541 45.2954 113.118 45.2954L92.6474 51.4174C92.4364 51.4174 92.2253 51.2063 92.0143 50.7841ZM122.826 41.4956C122.826 41.2845 123.037 41.0734 123.248 41.0734L143.508 34.7404C143.719 34.7404 144.142 34.7404 144.142 35.1626C144.142 35.3737 144.142 35.7959 143.719 35.7959L123.248 41.9178C123.248 42.1289 122.826 41.9178 122.826 41.4956ZM153.427 32.2071C153.427 31.996 153.638 31.7849 153.849 31.7849L174.321 25.663C174.532 25.663 174.954 25.663 174.954 26.0852C174.954 26.2963 174.954 26.7185 174.532 26.7185L154.061 32.8404C153.849 32.8404 153.427 32.6293 153.427 32.2071C153.427 32.4182 153.427 32.2071 153.427 32.2071ZM184.028 22.9187C184.028 22.7076 184.239 22.4965 184.451 22.4965L204.922 16.3745C205.133 16.3745 205.555 16.3745 205.555 16.7967C205.555 17.0078 205.555 17.43 205.133 17.43L184.662 23.552C184.451 23.552 184.239 23.3409 184.028 22.9187C184.028 23.1298 184.028 22.9187 184.028 22.9187Z" fill="url(#paint1_linear)"/>
<path d="M-0.000125991 78.6493C-0.000125981 78.4382 0.210918 78.2271 0.210918 78.2271L58.4584 50.7839C58.6695 50.5728 59.0915 50.7839 59.0915 50.995C59.3026 51.2061 59.0915 51.6283 58.8805 51.6283L0.844051 79.0715C0.633007 79.2826 0.210918 79.0715 0.210918 78.8604C0.210918 78.6493 -0.000125991 78.6493 -0.000125991 78.6493ZM67.7442 46.7729C67.7442 46.5618 67.9553 46.3507 67.9553 46.3507L111.43 25.8739C111.641 25.6628 112.063 25.8739 112.063 26.085C112.274 26.2961 112.063 26.7183 111.852 26.7183L68.3774 47.1951C68.1663 47.4062 67.7442 47.1951 67.7442 46.984C67.7442 46.984 67.7442 46.984 67.7442 46.7729ZM120.927 21.8629C120.927 21.6518 121.138 21.4407 121.138 21.4407L164.823 0.963867C165.034 0.963867 165.245 0.963867 165.457 1.17497C165.668 1.38607 165.457 1.80827 165.245 1.80827L121.771 22.2851C121.56 22.4962 121.138 22.2851 121.138 22.074C120.927 22.074 120.927 21.8629 120.927 21.8629Z" fill="url(#paint2_linear)"/>
<path d="M-3.05544e-05 78.6487C-3.05382e-05 78.4376 -3.05382e-05 78.4376 -3.05544e-05 78.6487C-3.05382e-05 78.4376 0.211014 78.0154 0.633102 78.2265L64.5787 79.0709C64.7898 79.0709 65.0008 79.282 65.0008 79.4931C65.0008 79.7042 64.7898 79.9153 64.3677 79.9153L0.633102 79.0709C0.422058 79.0709 -3.05706e-05 78.8598 -3.05544e-05 78.6487ZM74.9198 79.7042C74.9198 79.4931 75.1308 79.0709 75.5529 79.282L128.946 80.1264C129.157 80.1264 129.369 80.3375 129.369 80.5486C129.369 80.7597 129.157 80.9708 128.735 80.9708L75.3419 80.1264C75.1308 80.1264 74.9198 79.9153 74.9198 79.7042ZM141.609 80.5486C141.609 80.3375 141.82 79.9153 142.242 80.1264L200.912 80.9708C201.123 80.9708 201.334 81.1819 201.334 81.393C201.334 81.6041 201.123 81.8152 200.701 81.8152L142.031 81.1819C141.82 81.1819 141.609 80.9708 141.609 80.5486ZM213.574 81.8152C213.574 81.6041 213.785 81.1819 214.207 81.393L241.01 81.8152C241.221 81.8152 241.432 82.0263 241.432 82.2374C241.432 82.4485 241.221 82.6596 240.799 82.6596L213.996 82.2374C213.785 82.2374 213.574 82.0263 213.574 81.8152Z" fill="url(#paint3_linear)"/>
<path d="M0.000183082 78.6495C0.000183092 78.4384 0.000183092 78.4384 0.000183082 78.6495C0.000183102 78.2273 0.211243 78.0162 0.633316 78.2273L21.7375 81.1828C21.9485 81.1828 22.1596 81.3939 22.1596 81.8161C22.1596 82.0272 21.9485 82.2383 21.5264 82.2383L0.422287 79.2828C0.211243 79.0717 0.000183072 78.8606 0.000183082 78.6495ZM31.8675 82.8716C31.8675 82.4494 32.0785 82.2383 32.5006 82.4494L53.6048 85.4048C53.8158 85.4048 54.0268 85.6159 54.0268 86.0381C54.0268 86.2492 53.8158 86.4603 53.3937 86.4603L32.2896 83.5049C32.0785 83.2938 31.8675 83.0827 31.8675 82.8716ZM63.5237 87.0936C63.5237 86.6714 63.7348 86.4603 64.1569 86.6714L85.261 89.6268C85.4721 89.6268 85.6831 89.8379 85.6831 90.2601C85.6831 90.4712 85.4721 90.6823 85.05 90.6823L63.9458 87.7269C63.7348 87.7269 63.5237 87.5158 63.5237 87.0936ZM95.391 91.5268C95.391 91.1045 95.6021 90.8934 96.0241 91.1045L117.128 94.06C117.339 94.06 117.55 94.2711 117.55 94.6933C117.55 94.9044 117.339 95.1155 116.917 95.1155L95.8131 92.1601C95.6021 91.949 95.391 91.7379 95.391 91.5268ZM127.047 95.7488C127.047 95.3266 127.258 95.1155 127.68 95.3266L148.785 98.282C148.996 98.282 149.207 98.4931 149.207 98.9153C149.207 99.1264 148.996 99.3375 148.574 99.3375L127.469 96.3821C127.258 96.3821 127.047 96.171 127.047 95.7488ZM158.704 100.182C158.704 99.7597 158.915 99.5486 159.337 99.7597L180.441 102.715C180.652 102.715 180.863 102.926 180.863 103.348C180.863 103.56 180.652 103.771 180.23 103.771L159.126 100.815C158.915 100.604 158.704 100.393 158.704 100.182ZM190.571 104.404C190.571 103.982 190.782 103.771 191.204 103.982L212.308 106.937C212.519 106.937 212.73 107.148 212.73 107.57C212.73 107.782 212.519 107.993 212.097 107.993L190.993 105.037C190.782 105.037 190.571 104.826 190.571 104.404ZM222.227 108.837C222.227 108.415 222.438 108.204 222.86 108.415L231.724 109.682C231.935 109.682 232.146 109.893 232.146 110.315C232.146 110.526 231.935 110.737 231.513 110.737L222.649 109.47C222.438 109.259 222.227 109.048 222.227 108.837Z" fill="url(#paint4_linear)"/>
<path d="M-0.000183129 78.6495C-0.000183119 78.4384 -0.000183119 78.4384 -0.000183129 78.6495C-0.000183109 78.2273 0.421906 78.0162 0.63295 78.2273L62.2571 95.9599C62.4682 95.9599 62.6792 96.3821 62.6792 96.5932C62.6792 96.8043 62.2571 97.0154 62.0461 97.0154L0.421905 79.0717C0.210861 79.0717 -0.000183139 78.8606 -0.000183129 78.6495ZM71.965 99.3375C71.965 99.1264 71.965 99.1264 71.965 99.3375C71.965 98.9153 72.3871 98.7042 72.5981 98.9153L118.816 112.215C119.027 112.215 119.238 112.637 119.238 112.848C119.238 113.059 118.816 113.27 118.605 113.27L72.3871 99.9708C71.965 99.7597 71.965 99.5486 71.965 99.3375ZM128.313 115.592C128.313 115.381 128.313 115.381 128.313 115.592C128.313 115.17 128.735 114.959 128.946 115.17L175.164 128.47C175.375 128.47 175.586 128.892 175.586 129.103C175.586 129.314 175.164 129.525 174.953 129.525L128.735 116.226C128.524 116.015 128.313 115.803 128.313 115.592ZM184.872 131.847C184.872 131.636 184.872 131.636 184.872 131.847C184.872 131.425 185.294 131.214 185.505 131.425L205.765 137.336C205.976 137.336 206.187 137.758 206.187 137.969C206.187 138.18 205.765 138.391 205.554 138.391L185.294 132.48C184.872 132.269 184.872 132.058 184.872 131.847Z" fill="url(#paint5_linear)"/>
<path d="M0.00010678 78.6493L0.000106793 78.4382C0.211151 78.2271 0.422195 78.016 0.63324 78.2271L49.3839 100.182C49.5949 100.393 49.8059 100.604 49.5949 100.815C49.3838 101.026 49.1728 101.237 48.9618 101.026L0.422195 79.0715C0.211151 78.8604 0.00010678 78.6493 0.00010678 78.6493ZM58.4586 105.037L58.4586 104.826C58.6697 104.404 58.8807 104.404 59.3028 104.404L102.988 124.247C103.199 124.458 103.411 124.669 103.199 124.881C102.988 125.092 102.777 125.303 102.566 125.092L58.8807 105.248C58.6697 105.459 58.4586 105.248 58.4586 105.037ZM112.063 129.103L112.063 128.891C112.274 128.68 112.485 128.469 112.696 128.68L170.733 155.068C170.944 155.279 171.155 155.49 170.944 155.701C170.733 155.913 170.522 156.124 170.311 155.913L112.274 129.736C112.063 129.525 112.063 129.314 112.063 129.103Z" fill="url(#paint6_linear)"/>
<defs>
<linearGradient id="paint0_linear" x1="230.668" y1="50.3618" x2="230.668" y2="77.5756" gradientUnits="userSpaceOnUse">
<stop stop-color="#C0A5CB"/>
<stop offset="0.203125" stop-color="#81B9CB"/>
<stop offset="0.395833" stop-color="#87A5BD"/>
<stop offset="0.604167" stop-color="#88B7B2"/>
<stop offset="0.792846" stop-color="#B8A2CB"/>
<stop offset="1" stop-color="#98AFD9"/>
</linearGradient>
<linearGradient id="paint1_linear" x1="205.555" y1="16.3745" x2="205.555" y2="75.8046" gradientUnits="userSpaceOnUse">
<stop stop-color="#C0A5CB"/>
<stop offset="0.203125" stop-color="#81B9CB"/>
<stop offset="0.395833" stop-color="#87A5BD"/>
<stop offset="0.604167" stop-color="#88B7B2"/>
<stop offset="0.792846" stop-color="#B8A2CB"/>
<stop offset="1" stop-color="#98AFD9"/>
</linearGradient>
<linearGradient id="paint2_linear" x1="165.544" y1="0.963867" x2="165.544" y2="75.0843" gradientUnits="userSpaceOnUse">
<stop stop-color="#C0A5CB"/>
<stop offset="0.203125" stop-color="#81B9CB"/>
<stop offset="0.395833" stop-color="#87A5BD"/>
<stop offset="0.604167" stop-color="#88B7B2"/>
<stop offset="0.792846" stop-color="#B8A2CB"/>
<stop offset="1" stop-color="#98AFD9"/>
</linearGradient>
<linearGradient id="paint3_linear" x1="241.432" y1="78.1689" x2="241.432" y2="82.4256" gradientUnits="userSpaceOnUse">
<stop stop-color="#C0A5CB"/>
<stop offset="0.203125" stop-color="#81B9CB"/>
<stop offset="0.395833" stop-color="#87A5BD"/>
<stop offset="0.604167" stop-color="#88B7B2"/>
<stop offset="0.792846" stop-color="#B8A2CB"/>
<stop offset="1" stop-color="#98AFD9"/>
</linearGradient>
<linearGradient id="paint4_linear" x1="232.146" y1="78.1445" x2="232.146" y2="109.039" gradientUnits="userSpaceOnUse">
<stop stop-color="#C0A5CB"/>
<stop offset="0.203125" stop-color="#81B9CB"/>
<stop offset="0.395833" stop-color="#87A5BD"/>
<stop offset="0.604167" stop-color="#88B7B2"/>
<stop offset="0.792846" stop-color="#B8A2CB"/>
<stop offset="1" stop-color="#98AFD9"/>
</linearGradient>
<linearGradient id="paint5_linear" x1="206.188" y1="78.1445" x2="206.187" y2="135.252" gradientUnits="userSpaceOnUse">
<stop stop-color="#C0A5CB"/>
<stop offset="0.203125" stop-color="#81B9CB"/>
<stop offset="0.395833" stop-color="#87A5BD"/>
<stop offset="0.604167" stop-color="#88B7B2"/>
<stop offset="0.792846" stop-color="#B8A2CB"/>
<stop offset="1" stop-color="#98AFD9"/>
</linearGradient>
<linearGradient id="paint6_linear" x1="171.031" y1="78.1396" x2="171.031" y2="151.943" gradientUnits="userSpaceOnUse">
<stop stop-color="#C0A5CB"/>
<stop offset="0.203125" stop-color="#81B9CB"/>
<stop offset="0.395833" stop-color="#87A5BD"/>
<stop offset="0.604167" stop-color="#88B7B2"/>
<stop offset="0.792846" stop-color="#B8A2CB"/>
<stop offset="1" stop-color="#98AFD9"/>
</linearGradient>
</defs>
</svg>
