<svg width="107" height="68" viewBox="0 0 107 68" fill="none" xmlns="http://www.w3.org/2000/svg">
<path d="M61.7638 13.2701C60.5544 13.2701 59.4884 13.5967 58.5865 14.1684C57.5615 10.6365 54.4661 8.63574 49.7718 8.63574H42.3512V11.2081H49.9768C53.8717 11.2081 56.1676 13.3109 56.1676 16.9857C56.1676 20.6605 53.8717 22.7633 49.9768 22.7633H49.9153L50.3458 22.1304C51.2888 20.7218 52.1497 19.3335 52.1497 18.0269C52.1497 15.3321 50.4278 13.2905 47.066 13.2905C44.1551 13.2905 41.9617 15.5158 41.9617 18.129H44.7291C44.7291 16.8224 45.59 15.8629 47.066 15.8629C48.6444 15.8629 49.3824 16.7816 49.3824 18.1086C49.3824 19.1293 48.7264 20.1501 48.0089 21.1913L46.902 22.7837H42.3512V25.3561H45.139L40.2808 32.4403H51.9243V29.8475H45.0571L48.1524 25.3357H49.7718C50.0383 25.3357 50.3048 25.3357 50.5713 25.3153L58.7095 35.8905H62.2148L59.5294 32.4199L64.6337 24.9886C65.9456 23.1512 67.4831 21.1505 67.4831 18.8435C67.4626 15.8016 65.1257 13.2701 61.7638 13.2701ZM57.8075 30.215L53.6052 24.8049C55.1426 24.3149 56.3931 23.4983 57.295 22.3754C58.2995 23.6412 59.8779 24.4374 61.7843 24.4374H61.9278L57.8075 30.215ZM61.7638 21.8855C60.0009 21.8855 58.8529 20.5584 58.8529 18.8639C58.8529 18.721 58.8529 18.5985 58.8734 18.4556V18.374C59.0784 16.9245 60.1649 15.8424 61.7433 15.8424C63.5062 15.8424 64.6542 17.1695 64.6542 18.8639C64.6747 20.5584 63.5267 21.8855 61.7638 21.8855Z" fill="url(#paint0_linear)"/>
<path d="M53.0312 0C41.0187 0 31.2406 9.73823 31.2406 21.7018C31.2406 33.6653 41.0187 43.4035 53.0312 43.4035C65.0436 43.4035 74.8217 33.6653 74.8217 21.6813C74.8217 9.71782 65.0436 0 53.0312 0V0ZM53.0312 40.8312C42.4331 40.8312 33.8235 32.2566 33.8235 21.7018C33.8235 11.1469 42.4331 2.57236 53.0312 2.57236C63.6292 2.57236 72.2388 11.1469 72.2388 21.7018C72.2388 32.2362 63.6292 40.8312 53.0312 40.8312ZM7.23618 61.0222C7.91265 60.3893 8.34313 59.491 8.34313 58.4906C8.34313 57.4903 7.91265 56.592 7.23618 55.9591C6.62121 55.3875 5.80125 55.0404 4.5303 55.0404H0V67.4122H2.39839V61.9409H3.25936L7.68716 67.4122H10.639L5.98574 61.7367C6.49821 61.5734 6.9082 61.3284 7.23618 61.0222ZM5.59625 59.4502C5.39126 59.6747 5.08378 59.8176 4.38681 59.8176H2.39839V57.1636H4.38681C5.08378 57.1636 5.39126 57.3269 5.59625 57.5515C5.80125 57.7761 5.94474 58.1436 5.94474 58.5111C5.94474 58.8581 5.80125 59.2052 5.59625 59.4502ZM14.6774 61.8388H18.4902V59.7156H14.6774V57.1636H19.7201V55.0404H12.279V67.4122H19.9046V65.289H14.6774V61.8388ZM23.041 67.4122H25.4394V61.8388H29.2522V59.7156H25.4394V57.1636H30.4822V55.0404H23.041V67.4122ZM33.0036 55.0404H35.4019V67.4122H33.0036V55.0404ZM47.4349 63.1046L40.5062 55.0404H38.8253V67.4122H41.2237V59.3481L48.1524 67.4122H49.8333V55.0404H47.4349V63.1046ZM55.8805 61.8388H59.6934V59.7156H55.8805V57.1636H60.9233V55.0404H53.4822V67.4122H61.1078V65.289H55.8805V61.8388ZM71.4804 61.0222C72.1568 60.3893 72.5873 59.491 72.5873 58.4906C72.5873 57.4903 72.1568 56.592 71.4804 55.9591C70.8654 55.3875 70.0454 55.0404 68.7745 55.0404H64.2442V67.4122H66.6426V61.9409H67.5035L71.9108 67.4122H74.8832L70.2299 61.7367C70.7424 61.5734 71.1319 61.3284 71.4804 61.0222ZM69.8199 59.4502C69.6149 59.6747 69.3075 59.8176 68.6105 59.8176H66.6221V57.1636H68.6105C69.3075 57.1636 69.6149 57.3269 69.8199 57.5515C70.0249 57.7761 70.1684 58.1436 70.1684 58.5111C70.1889 58.8581 70.0454 59.2052 69.8199 59.4502ZM79.8645 59.3889L77.1176 55.0404H74.3912L78.6551 61.8184V67.4122H81.0534V61.8184L85.2968 55.0404H82.5704L79.8645 59.3889ZM93.5169 62.1246C94.3779 61.0018 94.8698 60.0422 94.8698 58.5111C94.8698 56.2449 92.9429 54.6117 90.811 54.6117H90.729C88.5971 54.6117 86.8137 56.1837 86.6702 58.4702H89.0686C89.0686 57.5924 89.8475 56.7757 90.77 56.7757C91.713 56.7757 92.4714 57.5924 92.4714 58.4702C92.4714 59.1235 92.3894 59.7972 91.4875 60.9405L86.1577 67.4122H95.3208V65.2482H90.9135L93.5169 62.1246ZM101.532 54.6117C99.1131 54.6117 97.1247 56.592 97.1247 59.0419C97.1247 61.5734 99.1131 63.3904 101.471 63.3904H101.635L99.2771 67.4122H101.922L104.853 62.4104C105.509 61.2876 106.083 60.1851 106.083 58.9398C106.083 56.2858 103.848 54.6117 101.532 54.6117ZM101.594 61.2467C100.364 61.2467 99.3591 60.2464 99.3591 59.0214C99.3591 57.7965 100.364 56.7961 101.594 56.7961C102.823 56.7961 103.828 57.7965 103.828 59.0214C103.828 60.2464 102.823 61.2467 101.594 61.2467ZM72.7923 0.530805C73.8993 0.530805 74.7807 1.42909 74.7807 2.51112C74.7807 3.59314 73.8788 4.49143 72.7923 4.49143C72.2649 4.49143 71.7592 4.28279 71.3863 3.91141C71.0134 3.54003 70.8039 3.03633 70.8039 2.51112C70.8039 1.98591 71.0134 1.48221 71.3863 1.11082C71.7592 0.739444 72.2649 0.530805 72.7923 0.530805ZM72.7923 4.22603C73.7353 4.22603 74.5142 3.45023 74.5142 2.51112C74.5142 1.572 73.7353 0.796208 72.7923 0.796208C71.8493 0.796208 71.0704 1.572 71.0704 2.51112C71.0704 3.45023 71.8493 4.22603 72.7923 4.22603ZM73.3663 3.57273L72.6283 2.51112H72.3413V3.57273H72.0748V1.40868H72.8333C73.0998 1.40868 73.2433 1.46992 73.3458 1.572C73.4483 1.67408 73.5098 1.81699 73.5098 1.9599C73.5098 2.12322 73.4483 2.24571 73.3458 2.34779C73.2638 2.42945 73.1408 2.4907 72.9563 2.51112L73.6738 3.57273H73.3663ZM72.8128 2.26613C73.0178 2.26613 73.0998 2.2253 73.1613 2.16405C73.2023 2.1028 73.2433 2.04156 73.2433 1.9599C73.2433 1.87823 73.2228 1.81699 73.1613 1.75574C73.0998 1.69449 73.0178 1.65366 72.8128 1.65366H72.3413V2.26613H72.8128Z" fill="url(#paint1_linear)"/>
<defs>
<linearGradient id="paint0_linear" x1="40.2808" y1="8.63574" x2="66.0656" y2="8.63574" gradientUnits="userSpaceOnUse">
<stop stop-color="#C0A5CB"/>
<stop offset="0.203125" stop-color="#81B9CB"/>
<stop offset="0.395833" stop-color="#87A5BD"/>
<stop offset="0.604167" stop-color="#88B7B2"/>
<stop offset="0.792846" stop-color="#B8A2CB"/>
<stop offset="1" stop-color="#98AFD9"/>
</linearGradient>
<linearGradient id="paint1_linear" x1="0" y1="0" x2="100.555" y2="0" gradientUnits="userSpaceOnUse">
<stop stop-color="#C0A5CB"/>
<stop offset="0.203125" stop-color="#81B9CB"/>
<stop offset="0.395833" stop-color="#87A5BD"/>
<stop offset="0.604167" stop-color="#88B7B2"/>
<stop offset="0.792846" stop-color="#B8A2CB"/>
<stop offset="1" stop-color="#98AFD9"/>
</linearGradient>
</defs>
</svg>
