<svg width="260" height="30" viewBox="0 0 260 30" fill="none" xmlns="http://www.w3.org/2000/svg">
<path fill-rule="evenodd" clip-rule="evenodd" d="M180.467 2.05549C177.575 0.465401 174.249 0.0317395 170.923 0.320847C169.477 0.465401 167.886 0.754508 166.585 1.47728C163.404 2.77826 160.656 5.23567 159.21 8.2713C158.343 10.0059 157.764 11.8851 157.62 13.9089C157.475 15.9327 157.764 18.101 158.487 20.1247C159.644 23.1603 161.813 25.9069 164.705 27.4969C166.007 28.2197 167.453 28.7979 168.899 29.087C170.489 29.5207 172.225 29.6653 173.96 29.5207C175.406 29.5207 176.997 29.2316 178.443 28.7979C180.901 28.0752 183.07 26.6296 184.661 24.6059C186.541 22.293 187.408 19.4019 187.697 16.5109C187.842 14.6317 187.842 12.7525 187.408 11.0178C187.119 9.71684 186.541 8.2713 185.818 7.11487C184.516 4.94657 182.636 3.21192 180.467 2.05549ZM167.163 3.35648C168.465 2.48915 169.911 2.05549 171.502 1.91094C173.381 1.76638 175.117 2.05549 176.707 2.63371C179.021 3.50103 180.901 5.38023 182.058 7.54853C182.781 8.99407 183.359 10.4396 183.648 12.0297C183.938 13.6198 183.938 15.2099 183.793 16.8C183.648 18.3901 183.215 20.1247 182.636 21.5702C182.202 22.7267 181.479 23.8831 180.467 24.895C179.6 25.6178 178.587 26.3405 177.575 26.7742C175.984 27.3524 174.249 27.6415 172.514 27.4969C170.634 27.3524 168.899 26.9187 167.453 26.0514C166.874 25.7623 166.296 25.3286 165.862 24.895C165.77 24.8034 165.664 24.7119 165.553 24.6158C165.313 24.4083 165.047 24.1795 164.85 23.8831L164.85 23.883L164.85 23.8829C164.56 23.5938 164.271 23.3048 164.127 23.0158C163.115 21.5702 162.391 19.8356 161.958 18.101C161.524 16.2218 161.379 14.198 161.668 12.3188C161.813 10.4396 162.391 8.56041 163.404 6.97032C164.416 5.52478 165.717 4.2238 167.163 3.35648ZM214.016 0.89904H210.111V5.38021V17.2336V28.2197H214.16V21.1366V10.295C214.594 10.295 215.028 10.295 215.317 10.1505C216.04 10.4396 216.618 11.0178 217.052 11.596C217.342 11.8851 217.486 12.3188 217.631 12.7524C217.92 13.7643 218.065 14.7762 218.065 15.7881C218.209 17.5225 218.209 19.257 218.209 20.9915V20.992C218.209 22.5821 218.354 24.1722 218.932 25.7623C219.366 26.7742 219.944 27.786 220.957 28.2197C221.535 28.5088 222.403 28.6534 223.126 28.5088C224.283 28.3643 225.584 27.6415 226.162 26.4851C226.018 26.4851 225.873 26.3406 225.729 26.196L225.729 26.1959C225.584 26.7742 225.15 27.0633 224.716 27.2078C224.283 27.3524 223.849 27.4969 223.415 27.2078C222.981 26.9187 222.692 26.3405 222.403 25.7623C221.8 24.4372 221.7 23.1121 221.599 21.787C221.579 21.522 221.559 21.257 221.535 20.992V19.9801C221.39 19.5465 221.39 19.2574 221.39 18.8238V18.8237C221.39 17.3782 221.39 16.0772 221.101 14.7762C220.957 13.4752 220.523 12.0297 219.511 11.0178C218.643 10.1505 217.342 9.57226 216.185 9.42771C217.196 8.27177 218.244 7.11582 219.292 5.95988L219.294 5.95841C220.342 4.80199 221.39 3.64556 222.403 2.48913C222.62 2.20002 222.837 1.94705 223.053 1.69408L223.053 1.69404C223.27 1.44109 223.487 1.18813 223.704 0.89904H221.101C219.944 2.20066 218.75 3.53845 217.557 4.87622L217.556 4.87671C216.364 6.21302 215.172 7.54931 214.016 8.8495V0.89904ZM66.6629 1.04366H69.9888C72.3024 4.00691 74.616 6.93403 76.9296 9.86114C79.2434 12.7885 81.5572 15.7158 83.8709 18.6792V7.25947V1.04366H86.04V2.4892V25.6178V28.6534C85.6062 28.2198 85.317 27.7861 85.0278 27.3524C83.102 24.8551 81.1576 22.3577 79.2078 19.8536C75.7405 15.4004 72.2566 10.9259 68.832 6.39215V27.9307V28.3643H66.6629V17.3782V1.04366ZM106.574 1.04366H102.38C102.38 1.18819 102.417 1.2966 102.453 1.40499L102.453 1.40504C102.489 1.51346 102.525 1.62188 102.525 1.76643C106.14 9.57233 109.611 17.5228 112.937 25.4732C113.37 26.6297 113.804 27.7861 114.383 28.798C114.672 28.3643 114.816 27.9307 114.961 27.497C115.539 26.196 116.118 24.9312 116.696 23.6663L116.696 23.6661L116.697 23.6646C117.275 22.4003 117.853 21.136 118.432 19.8356L122.336 28.0752C122.336 28.2198 122.481 28.5089 122.625 28.6534C123.565 26.6297 124.469 24.5698 125.373 22.5099C126.276 20.45 127.18 18.3901 128.12 16.3664C129.277 13.8367 130.398 11.307 131.518 8.77728C132.639 6.24759 133.76 3.7179 134.917 1.18821H132.458L132.024 2.05554C131.157 3.93468 130.325 5.81383 129.494 7.69298C128.662 9.57223 127.831 11.4515 126.963 13.3307C126.191 15.3162 125.334 17.2175 124.458 19.163C124.186 19.7672 123.911 20.3756 123.637 20.9921C123.421 20.5586 123.24 20.1612 123.059 19.7638L123.059 19.7634L123.059 19.7629C122.878 19.3655 122.697 18.9682 122.481 18.5347C122.191 17.9565 121.938 17.3784 121.685 16.8003L121.685 16.8C121.432 16.2218 121.179 15.6436 120.89 15.0654C120.89 14.9931 120.854 14.9208 120.818 14.8485C120.781 14.7763 120.745 14.704 120.745 14.6317C122.481 10.4397 124.216 6.39215 125.951 2.34464C126.023 2.12785 126.132 1.91106 126.24 1.69427L126.24 1.69413C126.349 1.47731 126.457 1.26049 126.529 1.04366H124.65C124.505 1.04366 124.36 1.04366 124.36 1.18821C123.565 2.92276 122.77 4.69343 121.975 6.46411C121.179 8.235 120.384 10.0059 119.588 11.7406C118.989 10.4933 118.408 9.26315 117.831 8.04429L117.831 8.04352L117.831 8.04273L117.83 8.04205L117.83 8.04155L117.83 8.04145L117.83 8.0412L117.83 8.04074C116.737 5.72954 115.663 3.45888 114.527 1.18821C114.527 1.18821 114.527 1.04366 114.383 1.04366H110.478C110.478 1.11594 110.514 1.18821 110.551 1.26049L110.551 1.26054C110.587 1.3328 110.623 1.40506 110.623 1.47732C112.936 6.68062 115.25 11.7394 117.563 16.7982L117.564 16.8C116.841 18.2456 116.263 19.5465 115.684 20.9921C114.744 18.896 113.768 16.7639 112.792 14.6317L112.791 14.6293C111.815 12.498 110.839 10.3666 109.9 8.27135C109.321 7.04264 108.779 5.85008 108.237 4.65751C107.695 3.46494 107.152 2.27237 106.574 1.04366ZM191.168 1.04366H196.952C197.82 1.04366 198.688 1.04366 199.555 1.33277C200.712 1.62188 201.724 2.20009 202.592 3.06741C203.604 4.07929 203.893 5.52483 203.893 6.97036C203.893 8.4159 203.315 9.71689 202.447 10.7288C201.435 11.7406 200.134 12.3189 198.832 12.608C199.989 12.7525 201.29 13.1862 202.158 14.0535C203.026 14.7763 203.459 15.9327 203.604 16.9446C203.95 18.3287 203.928 19.6209 203.905 20.9678V20.968V20.9681V20.9682V20.9684V20.9685V20.9686V20.9687C203.899 21.3095 203.893 21.6538 203.893 22.004C204.038 23.4495 204.182 24.7505 204.761 26.0515C205.05 26.6297 205.484 27.2079 206.062 27.3524C206.93 27.497 207.798 27.0633 208.087 26.3406C208.159 26.4128 208.231 26.449 208.304 26.4851C208.376 26.5213 208.448 26.5574 208.521 26.6297C208.521 26.7019 208.484 26.7381 208.448 26.7742C208.412 26.8104 208.376 26.8465 208.376 26.9188C207.508 28.0752 206.062 28.798 204.761 28.6534C203.749 28.6534 202.736 28.0752 202.013 27.2079C201.185 26.2418 200.884 24.8804 200.607 23.6269L200.567 23.4495C200.423 22.5823 200.423 21.715 200.423 20.8478V20.8475C200.423 18.9683 200.423 16.9446 199.7 15.2099C199.555 14.6317 199.266 14.0535 198.687 13.6198C198.109 13.0416 197.241 12.8971 196.374 12.8971V12.3189C197.531 12.0297 198.543 11.307 199.121 10.1505C199.7 9.28322 199.844 8.27135 199.844 7.25947C199.844 6.10304 199.7 4.94661 199.121 4.07929C198.543 3.21197 197.531 2.63375 196.518 2.4892H194.494V26.0515V28.0752H190.445V23.3049V20.1248C190.445 19.2026 190.48 18.2804 190.515 17.3411V17.3405V17.34V17.3394V17.3389V17.3384V17.3378V17.3373C190.552 16.3638 190.59 15.3719 190.59 14.3426V12.0297C190.59 11.0901 190.626 10.1144 190.662 9.13867C190.698 8.16293 190.734 7.18719 190.734 6.24759V4.3684C191.168 3.35652 191.168 2.20009 191.168 1.04366ZM247.709 1.04366H242.937C242.937 1.60485 242.903 2.16605 242.867 2.74376C242.83 3.35652 242.792 3.98786 242.792 4.6575V7.11492C242.647 8.70501 242.647 10.2951 242.647 11.8852C242.647 12.8796 242.612 13.9089 242.577 14.956L242.577 14.957C242.54 16.0405 242.503 17.143 242.503 18.2456V20.2693C242.358 22.2929 242.358 24.1719 242.358 26.0509V26.0515V28.5089H246.407V25.0396V2.77831H247.419C247.998 2.77831 248.576 2.77831 249.155 2.92286C249.878 3.06741 250.456 3.64563 250.89 4.22384C251.613 5.38027 251.758 6.82581 251.613 8.27135C251.468 9.13867 251.179 10.006 250.745 10.7288C250.022 11.5961 249.155 12.3189 247.998 12.608V13.1862H248.721C249.299 13.1862 249.878 13.4753 250.311 13.9089C250.906 14.384 251.109 15.0543 251.323 15.7594C251.37 15.9124 251.417 16.0671 251.468 16.2218C251.758 17.8119 251.902 19.402 251.902 20.9921C251.902 22.5822 252.047 24.3168 252.625 25.9069C253.059 26.9188 253.637 27.9307 254.65 28.3643C255.373 28.798 256.24 28.798 257.108 28.6534C258.265 28.3643 259.422 27.6416 260 26.6297C259.928 26.5574 259.855 26.5213 259.783 26.4851C259.711 26.449 259.639 26.4128 259.566 26.3406C259.277 27.0633 258.409 27.497 257.542 27.3524C257.108 27.2079 256.819 26.9188 256.529 26.6297C255.806 25.4732 255.517 24.0277 255.373 22.5822C255.315 21.8883 255.303 21.1945 255.292 20.5006C255.274 19.4598 255.257 18.419 255.083 17.3782C254.939 16.2218 254.505 15.0654 253.637 14.1981C252.77 13.1862 251.468 12.7525 250.167 12.608C250.384 12.5357 250.637 12.4634 250.89 12.3911C251.143 12.3189 251.396 12.2466 251.613 12.1743C252.914 11.7406 253.927 11.0179 254.65 9.86144C255.373 8.84956 255.517 7.69313 255.517 6.5367C255.517 5.23572 255.083 3.93474 254.216 3.06741C253.348 2.05554 252.191 1.47732 250.89 1.18821C249.878 1.04366 248.721 1.04366 247.709 1.04366ZM1.44605 1.3326C1.44605 1.26032 1.4822 1.26032 1.53643 1.26032C1.59066 1.26032 1.66296 1.26032 1.73526 1.18805H19.6663C19.8109 1.57352 19.9716 1.959 20.1322 2.34448C20.4536 3.11543 20.7749 3.88638 20.9677 4.65734C19.5217 3.50091 17.6418 3.06725 15.762 2.92269H12.436V28.5087H8.5317V2.92269H5.35039C3.75973 3.06725 2.02447 3.35635 0.723026 4.22367C0.578421 4.29595 0.469967 4.36823 0.361513 4.44051C0.253059 4.51278 0.144605 4.58506 0 4.65734C0 4.49499 0.0911999 4.33264 0.196779 4.14469C0.279214 3.99795 0.370414 3.8356 0.433815 3.64546C0.57842 3.28408 0.759176 2.88655 0.939932 2.48903L0.939934 2.48903L0.939935 2.48903C1.12069 2.0915 1.30145 1.69398 1.44605 1.3326ZM27.3304 1.18805H23.4261V28.5087H27.3304V13.7642H37.1635V28.5087H40.2002V1.18805H37.1635V12.3187H27.3304V1.18805ZM43.96 1.18805H54.8054C54.95 1.18805 54.95 1.18805 54.95 1.3326C55.0946 1.69398 55.2754 2.09151 55.4561 2.48903C55.6369 2.88655 55.8176 3.28408 55.9623 3.64546C56.0346 3.71774 56.0707 3.82615 56.1069 3.93457C56.143 4.04298 56.1792 4.1514 56.2515 4.22367C54.95 3.06724 53.2148 2.63358 51.6241 2.63358H47.8644V12.1741H52.3471C52.9255 12.1741 53.504 12.1741 54.0824 11.885C54.3716 11.885 54.6608 11.7405 54.95 11.4514V11.885V14.7761C54.8054 14.6315 54.6608 14.487 54.3716 14.3424C53.6486 14.0533 52.9255 13.9088 52.2025 13.9088H47.8644V26.6295H52.0579C53.7932 26.485 55.5284 26.1958 57.1191 25.3285C56.6346 26.0549 56.0488 26.7814 55.5313 27.4229L55.5312 27.423L55.5311 27.4232L55.531 27.4233L55.5305 27.4239C55.4304 27.548 55.3329 27.6688 55.2392 27.7859C55.0946 28.075 54.8054 28.3641 54.6608 28.5087L54.6608 28.5087H43.96V17.5226V1.18805ZM98.6207 1.33274H89.7998C89.7998 1.51343 89.7907 1.68509 89.7817 1.85674C89.7546 2.37172 89.7275 2.88669 89.9444 3.6456V9.57231C89.9444 11.0175 89.9082 12.4989 89.8721 13.9802L89.8721 13.9812C89.8359 15.4629 89.7998 16.9445 89.7998 18.3901V20.2693C89.6552 22.293 89.6552 24.3168 89.6552 26.3405V28.5089H105.706C105.953 28.0158 106.183 27.5395 106.407 27.0743C106.841 26.1758 107.254 25.3186 107.731 24.4613C107.659 24.5336 107.55 24.6059 107.442 24.6782C107.333 24.7505 107.225 24.8227 107.152 24.895C105.706 25.9069 103.971 26.3405 102.236 26.6297C100.501 26.7742 98.7653 26.7742 97.03 26.7742H93.9933V14.198H97.7531C98.4761 14.198 99.0545 14.198 99.6329 14.4871C100.211 14.6317 100.79 15.0654 101.224 15.499V13.7644V11.4515C101.079 11.5238 100.934 11.6322 100.79 11.7406L100.79 11.7407C100.645 11.8491 100.501 11.9575 100.356 12.0297C99.6629 12.3761 98.8775 12.3536 98.0735 12.3305C97.8711 12.3247 97.6675 12.3188 97.4639 12.3188H93.9933V2.77828H96.7408C97.8977 2.92284 98.9099 3.21194 99.9221 3.6456L101.224 4.51293C101.151 4.2961 101.043 4.07927 100.934 3.86243C100.826 3.6456 100.717 3.42877 100.645 3.21194C100.356 2.48917 100.067 1.91096 99.7775 1.33274H98.6207ZM140.267 1.33274H142.581L142.581 1.33408C145.04 5.52569 147.498 9.71731 149.811 13.9089L156.752 1.76641C156.795 1.72328 156.825 1.66728 156.854 1.61378V1.61374C156.922 1.48792 156.983 1.37588 157.186 1.4773H159.5C158.271 3.64499 157.006 5.84879 155.741 8.05261L155.74 8.05366C154.475 10.2584 153.209 12.4631 151.98 14.6317V28.798H147.931V14.6317C146.531 12.1442 145.132 9.74023 143.754 7.37495L143.753 7.37292C142.57 5.34051 141.403 3.33663 140.267 1.33274ZM238.888 1.33274H227.898V1.33563C227.898 10.4416 227.898 19.5475 228.042 28.9425H238.743C238.96 28.5811 239.213 28.2559 239.466 27.9306C239.719 27.6054 239.972 27.2801 240.189 26.9188C240.623 26.4851 240.912 26.0515 241.201 25.6179L241.201 25.6178C239.9 26.196 238.454 26.6297 237.008 26.7742C235.273 26.9188 233.682 26.9188 231.947 26.9188V14.0535H235.273C235.519 14.0535 235.749 14.0367 235.973 14.0202C236.407 13.9885 236.821 13.9582 237.297 14.0535C237.875 14.198 238.598 14.4871 239.032 14.9208V13.9089V11.5961C238.743 11.8852 238.309 12.0297 237.875 12.1743C237.008 12.3188 236.14 12.3188 235.273 12.3188H231.802V2.77828H234.694H236.429C237.442 2.77828 238.309 3.06739 239.177 3.50105C239.394 3.64561 239.575 3.79017 239.755 3.93474C239.936 4.07928 240.117 4.22383 240.334 4.36837C240.226 3.93952 240.04 3.59018 239.832 3.20241C239.76 3.06736 239.685 2.92764 239.611 2.77828C239.466 2.56144 239.358 2.30846 239.249 2.05549C239.141 1.80253 239.032 1.54957 238.888 1.33274Z" fill="url(#paint0_linear)"/>
<defs>
<linearGradient id="paint0_linear" x1="0" y1="0.237305" x2="246.452" y2="0.237305" gradientUnits="userSpaceOnUse">
<stop stop-color="#C0A5CB"/>
<stop offset="0.203125" stop-color="#81B9CB"/>
<stop offset="0.395833" stop-color="#87A5BD"/>
<stop offset="0.604167" stop-color="#88B7B2"/>
<stop offset="0.792846" stop-color="#B8A2CB"/>
<stop offset="1" stop-color="#98AFD9"/>
</linearGradient>
</defs>
</svg>
